<svg xmlns="http://www.w3.org/2000/svg" id="Layer_1" data-name="Layer 1" viewBox="0 0 483 153.16"><defs><style>.cls-1{fill:#515151;}.cls-2{font-size:46.98px;font-family:ArialMT, Arial;letter-spacing:-0.14em;}.cls-2,.cls-4{fill:#3d79d1;}.cls-3{letter-spacing:-0.03em;}</style></defs><path class="cls-1" d="M100.16,135.37V69.27h12.67v66.1Z" transform="translate(-8 -40.39)"></path><path class="cls-1" d="M120.58,110.75a26,26,0,0,1,3.11-12.22,21.36,21.36,0,0,1,8.81-9,26.23,26.23,0,0,1,12.74-3.11q10.86,0,17.81,7.06T170,111.29q0,10.86-7,18a23.67,23.67,0,0,1-17.65,7.15,27.69,27.69,0,0,1-12.55-3,20.35,20.35,0,0,1-9.09-8.72A29.11,29.11,0,0,1,120.58,110.75Zm13,.68q0,7.13,3.39,10.91a11.06,11.06,0,0,0,16.65,0q3.36-3.8,3.36-11,0-7-3.36-10.82a11,11,0,0,0-16.65,0Q133.56,104.3,133.56,111.43Z" transform="translate(-8 -40.39)"></path><path class="cls-1" d="M176.43,138.52l14.47,1.76a5,5,0,0,0,1.67,3.47c1.2.9,3.1,1.35,5.68,1.35q5,0,7.44-1.48a6.15,6.15,0,0,0,2.53-3.2,19.41,19.41,0,0,0,.58-5.82v-7q-5.67,7.76-14.33,7.76a17.65,17.65,0,0,1-15.29-8.16q-4.41-6.45-4.42-16,0-12,5.8-18.4A18.68,18.68,0,0,1,195,86.4q8.88,0,14.65,7.8V87.49h11.86v43q0,8.48-1.4,12.67a15.65,15.65,0,0,1-3.92,6.58,17.36,17.36,0,0,1-6.74,3.75,35.52,35.52,0,0,1-10.66,1.35q-12.18,0-17.27-4.17a13.08,13.08,0,0,1-5.09-10.57C176.39,139.63,176.4,139.12,176.43,138.52Zm11.32-28.09q0,7.62,2.95,11.16a9.14,9.14,0,0,0,7.28,3.54,10.08,10.08,0,0,0,7.85-3.63q3.19-3.63,3.2-10.75,0-7.44-3.07-11a9.74,9.74,0,0,0-7.75-3.6,9.35,9.35,0,0,0-7.51,3.54Q187.75,103.18,187.75,110.43Z" transform="translate(-8 -40.39)"></path><path class="cls-1" d="M231.7,81V69.27h12.67V81Zm0,54.38V87.49h12.67v47.88Z" transform="translate(-8 -40.39)"></path><path class="cls-1" d="M296.79,101.64,284.3,103.9a9,9,0,0,0-2.86-5.64,8.66,8.66,0,0,0-5.79-1.89,9.44,9.44,0,0,0-7.55,3.27q-2.82,3.27-2.82,10.93,0,8.52,2.86,12a9.41,9.41,0,0,0,7.69,3.51,8.51,8.51,0,0,0,5.9-2.05c1.54-1.36,2.62-3.72,3.25-7l12.44,2.12q-1.94,8.56-7.44,12.94t-14.74,4.37q-10.5,0-16.75-6.63t-6.24-18.35q0-11.85,6.26-18.46t17-6.61q8.75,0,13.91,3.77T296.79,101.64Z" transform="translate(-8 -40.39)"></path><path class="cls-1" d="M321.89,87.49h7V83.88c0-4,.43-7,1.29-9A10.15,10.15,0,0,1,334.94,70a18.25,18.25,0,0,1,8.72-1.87,35.06,35.06,0,0,1,10.6,1.63l-1.71,8.83a25.17,25.17,0,0,0-5.82-.72,5.2,5.2,0,0,0-4,1.29c-.79.85-1.19,2.5-1.19,4.93v3.39h9.47v10h-9.47v37.92H328.92V97.45h-7Z" transform="translate(-8 -40.39)"></path><path class="cls-1" d="M368,135.37H355.33V87.49H367.1v6.8q3-4.82,5.43-6.35A10,10,0,0,1,378,86.4a16.11,16.11,0,0,1,8.34,2.39l-3.92,11a11.15,11.15,0,0,0-5.95-2.07A7,7,0,0,0,372,99.23c-1.23,1-2.2,2.74-2.91,5.3s-1.06,7.9-1.06,16Z" transform="translate(-8 -40.39)"></path><path class="cls-1" d="M421,135.37V128.2a18.43,18.43,0,0,1-6.87,6,19.32,19.32,0,0,1-9,2.21,17.59,17.59,0,0,1-8.65-2.12,12.49,12.49,0,0,1-5.55-6q-1.71-3.84-1.71-10.6V87.49H401.9v22q0,10.1.7,12.37a6.73,6.73,0,0,0,2.54,3.61,7.81,7.81,0,0,0,4.69,1.33,10,10,0,0,0,5.82-1.78,9.06,9.06,0,0,0,3.51-4.42q1-2.64.95-12.92V87.49h12.67v47.88Z" transform="translate(-8 -40.39)"></path><path class="cls-1" d="M443.59,81V69.27h12.67V81Zm0,54.38V87.49h12.67v47.88Z" transform="translate(-8 -40.39)"></path><path class="cls-1" d="M488.89,87.49V97.58h-8.65v19.3a49.47,49.47,0,0,0,.24,6.83,2.82,2.82,0,0,0,1.13,1.6,3.59,3.59,0,0,0,2.14.63,16.39,16.39,0,0,0,5.1-1.21l1.08,9.82a25.06,25.06,0,0,1-10,1.9,15.87,15.87,0,0,1-6.18-1.15,9,9,0,0,1-4-3,11.64,11.64,0,0,1-1.78-4.93,61.39,61.39,0,0,1-.41-8.93V97.58h-5.81V87.49h5.81V74.38h12.72V87.49Z" transform="translate(-8 -40.39)"></path><text class="cls-2" transform="translate(222.87 137.91)">T<tspan class="cls-3" x="22.31" y="0">echnologies</tspan></text><path class="cls-4" d="M136.59,153.59c-1.49-.87-2.93-.7-4.64-.55a5.29,5.29,0,0,0-3.53,1.53l-1.32-2.22-.82,1.48-.9-1.68-.66,1.51,0,0c-1.16-1.35-2.19-.21-3.36.19l-.17-1.42c-1.42.29-2.89,2.75-4.32-.24-.76,1.14-1.37,1.74-2.58.41a1.42,1.42,0,0,0-2.51.58l-2.93.33-.07-1.16-.76.66-.91-1.88-.41,1.64-1-.31-.19,1.3v0c-1.34-.11-2.85-.66-4-.22a7.26,7.26,0,0,0-4,3.68c-1,2-.69,3.65-.33,5.6-1.51.79-2.67,1.74-1.15,3.66.24.3,0,1.26-.3,1.66a2.93,2.93,0,0,0-.6,3.12,2.07,2.07,0,0,1-.35,1.55A15.55,15.55,0,0,1,93,174.67l1.41,1.91-1.21.24c.22.31.4.58.26.36a41.35,41.35,0,0,0-1.65,4c-.42,1.45-1.46,2.21-3.36,2.28-.26,0-.5.51-.56.58-4.33-3.8-4.41-9.13-4.42-14.16-1.13-2.13.85-4.37-1.14-6.24-.35-.33-.22-1.13-.45-1.65a9.25,9.25,0,0,0-1-1.42l.78.4.11-.3-.92-.06.63-2.6s-.49-.17-.48-.26c.21-1.24.49-2.46.83-4.06L80,152.49c2-1.84,1.8-6.19-.91-9l1.82-1c-.9-1.75-1.76-3-1.34-5s-.27-4.06-.41-6.1c-.07-.89,0-1.78,0-2.82,0,0-.52-.11-.53-.27a2.76,2.76,0,0,1,.28-1.38,8.65,8.65,0,0,1,1-1.34c-.49-.34-1-.69-1.48-1s-.79-.36-1.57-.71l1.78-.72-2.34-1.62,1.45-.53-1.58-1.91,2-.45,0-.53-2.57-1,1.69-.28.63-2-1.9-.82.78-.82L75,112.3l1.34-.35c-.11-1.28-.22-2.52-.33-3.77l.63-.23-1.84-.9,1.61-1.37-.3.16.16.17.11-.33c-.09-.69-.17-1.39-.26-2.08s-.15-1.44-.25-2.15c-.24-1.61-.51-3.2-.75-4.81-.13-.86-.17-1.74-.37-2.59s-.54-1.74-.84-2.67l1.11.19a6.5,6.5,0,0,0-.5-1.76,8.14,8.14,0,0,1-1-5.15c0-.4-.48-.84-.74-1.26-.37,1.06-.63,1.77-.87,2.49-.11.33-.35.76-.24,1,.53,1,.91,2,0,3.1-.28.35.31,1.32.35,2a5.38,5.38,0,0,1-.32,1.49l-.52,0L72,94.64l-.9,1.41.05,0a5.8,5.8,0,0,0-1,.36c.2,1,.48,2,.76,3.14l-1.18.24,1.35.75-.75,1.18,1.78.7-2,.67,1,1.3-1.26.08v2.11l.91.52L69.4,108l2,.56-1.67,1c.73.84,2.25,1.41.29,2.26l1.37.78-1.59.49.93.82c-.37.91-.77,1.85-1.16,2.8l-.3.17h1.17l.21,2c-.19.19-1,.6-1,1a6.69,6.69,0,0,1-.7,3c-.64,1.4-.17,3.51.33,5.17.59,2,.32,3.35-1.8,4.31l1.42.35c-.08,1.14-.18,2.38-.25,3.63-.06,1-.1,2.07-.15,3.11l-.53,0L69.06,141c-.21,1.17-.34,1.86-.46,2.56,0,.16,0,.41-.1.47-1.22.86-.55,2.45-1.35,3.49-.13.17.06.59.07.9,0,.6,0,1.2,0,1.8.07.89.28,1.78.3,2.67a22.63,22.63,0,0,1-.25,2.6l-.66.14a7.28,7.28,0,0,1,.29,1.29c.1,1.85.4,3.74-1.29,5.19-.26.22-.13.91-.2,1.58-4.09,1.11-4.09,1.11-5.25.28-.77-2.59-2.39-4.88-2.71-7.64a5.94,5.94,0,0,0-1.15-1.24,4.58,4.58,0,0,0-1.39-.4l1.28-2.53-2-.18,1-1.39L53.48,150l.93-.75-1.73-3.21.51-.56c-1.94-1.85-2-2.36-.77-3.32L51,140.14l-2.25,1.3.71.59-1.3.71.53.13c-.21,2.18-.37,4.38-.66,6.55a6.56,6.56,0,0,1-.89,3.07c-.43.56-1.65.48-2.5.75-.32.11-.56.44-.87.59-.53.24-1.42.75-1.6.58-1-.93-1.89-.4-2.73,0a1.8,1.8,0,0,1-2.57-1l-3.89.56c-.78.11-1.56.18-2.35.27l-.05.53-1-1.15c-.56.28-1.23.82-1.43.68-1.76-1.21-3.76-.5-5.32-.15-2,.45-4.17-.52-6.09.73l-.23-1.38-1.28.92-.34-1.21c-1.52,1.21-4.51,1.42-5.69.43.79-1.48.72-2.8-.74-3.86L8,148.6l.92.18c.17-.74.28-2,.52-2.07a8.81,8.81,0,0,1,2.64.51l.37-.87.89,1,.53-1c.57.17,1.11.31,1.62.5.73.27,1.46.87,2.14.8a9,9,0,0,0,2.58-1.14l1,1,1.07-.62.4,1.44.39-1.61,1.28,1.54.23-1.95,1.18,1.28.19-1.75c1,1.1,1.87,2.28,3.35.89l.72,1.17,1.94-1.45c1.67,1.12,8.74-.14,11.06-2.12-1.74-1.81.29-3.39.34-5.11a12.44,12.44,0,0,1,.77-2.85l-.47-.13,2-1.82h-2c.52-1.11,1-2.05,1.39-3,0-.16,0-.31,0-.47l-.2.26-.57-.15,2.16-3.86-.31-.21.14-.12.34.47,1-2,1.11.72.07-1.3,2.7,1,.2-.44,1.12,2.68,1.19-.35-.34,1-.15.45.51,0,.58,1.17.77,2.08-.44.28.67.11c0,1.15-.35,2.3,0,3.11s1.5,1,2.37,1.49l-1.5.58,1.94,3-.09.55.07.06.26.41,1.38.12.05,0-.81.34-.84.7,2.85,2.09a7.19,7.19,0,0,0,.32-6.13V135l1-.33-1-.55L63.43,133l-2.33-.28L63,131.41l-1.7-.74c.62-.8,1.53-1.49,1.7-2.34s-.53-1.63-.9-2.57c1-1,1-3.21,0-5,1.12-1.63,2-3,1.44-5.21-.31-1.34-1.39-3.22.53-4.59.24-.17-.23-1.36-.41-2.07s-.44-1.49-.69-2.37c1.32-.38,1.75-1.08.49-2L64.85,103l-1.68-.72c.42-2.26.81-4.42,1.29-7,1.07-.52,1.28-1.45-.1-2.74a1.43,1.43,0,0,1,.26-2.56c.28-.16.3-.76.46-1.15.59-1.41-.36-3,.72-4.45,1.22-1.65-.06-4,1-5.8.11-.18-.72-.94-1.26-1.61.28-.35,2-.8.67-1.34.33-1.4,1.08-2.76.8-3.86a17,17,0,0,1-.12-6.16,10.92,10.92,0,0,1,.89-4c.37-.77-.47-2.08-.62-3.17a11.74,11.74,0,0,1,.11-2.31l.87-.14c-.91-1.84-.51-4.74.89-5.75l-1.42-1.55L68.75,48l-1.21-1.25.64-.26.51,0L68.56,46a7.74,7.74,0,0,1,0-2.2,4.28,4.28,0,0,1,4.59-3,6.84,6.84,0,0,0,1.7-.42,3.94,3.94,0,0,1,.94,3.87c0,.11.59.44.56.42-.13,1.89-.24,3.55-.38,5.56l1.11,1.31-1.4.45,1.45,1.29,0,0-.85.29,1.07.77c-.1,1.52-.2,3.12-.31,4.78l1.79.31-1.64,1,1.54.87L77.19,62,79,64.47l-1.14.66,1.46,1.19-1.88.27,1.74,4-1.23.6,1.53.9-1.63.78,1.21.37c.13,1.47.31,2.82.36,4.17,0,1-.1,2-.15,3l-.54-1-.47.43,1,.51,1,1.76L78.77,83l1.49.38c.13.69.27,1.44.43,2.26L79.52,86l1.38.44-1.05,1.31,2-.18-1.23,1.59,1.19.3-.93.58c.37.32,1,.66,1,.9-.2,1.57-.55,3.12-.86,4.72l1.26.27-1,1.42,1.89,1-1.72,1.86,1.21,1.9a2.24,2.24,0,0,0,.37,3.14c.47.46.4,1.47.33,2.28l.71,2.52-.53.12a4.27,4.27,0,0,0,.12,1.27,6.09,6.09,0,0,0,.69,1.06c-.18.78-.38,1.43-.47,2.1a11.36,11.36,0,0,0,0,2.19L84,122.2l-.23.23.46,0a12.08,12.08,0,0,1,1.13,1.18c-1.09,1.3,1.52,2.68-.11,3.9,1.27,1.51-.5,3.9,1.52,5.18l-.5.53c-.19-.12-.39-.23-.59-.34l.14.84a7,7,0,0,1,1,1.09c.44.68,1.31,1.57,0,1.59v3.37h.51V145l1.37,2-1.22.55c.25.7.52,1.4.76,2.12.36,1.1,1.43,2.21-.09,3.33-.12.09.41,1.07.73,1.85l-1.39,1,2.13.25-1.17,1.9c.18.74.33,1.38.49,2l-.65.57.41.35.54-.62h1.34l.25-2.82,1.09-.46a8.13,8.13,0,0,1,.11-6.42c.79-1.72.84-3.83,2.63-4.9.42,0,1,0,1.52.14,1.9.38,4.08-.7,5.75,1.11.2.22.84.18,1.23.07,1-.29,2-.67,3.08-1.05l.17,1.27H109l1.47-2.52.55,1.6,1.71-1.13-.73,2.28,1.64-1,.37,1a13.4,13.4,0,0,1,1.77-1.58,14.41,14.41,0,0,1,2.26-.94l-.15,1.68,1-.78.34,1.48.88-2.05c1-.21,1.75,2.12,2.94.27l1.57.92a6.65,6.65,0,0,1,2-.6c1.32.12,2.61.65,3.9.65,1,0,1.94-.67,2.95-.86a5.22,5.22,0,0,1,1.7.28l.6.41-.13-.87L137,145c0-.23.05-.66.13-1.69.46.94.67,1.37.88,1.83l.46-.79,1.32,1.41,1.19-.88c.13,1.27.13,1.27,4.49.66l-.52,1c1.54.7,1.78,1.35,1.15,2.81a4.53,4.53,0,0,0-.16,1.24c-.19,1.53-2.09.65-2.6,1.84-.28.66-.68,1.45-1.75,1a5.32,5.32,0,0,0-1.4-.19l-.16-.62-.85,1.5c-.19-.88-.3-1.36-.45-2.07l-.88,1.55-.87-1.37-.39,1.44Z" transform="translate(-8 -40.39)"></path></svg>