<svg width="544" height="153" viewBox="0 0 544 153" fill="none" xmlns="http://www.w3.org/2000/svg">
<g clip-path="url(#clip0_2_3)">
<path d="M103.799 94.8808V28.8498H118.069V94.8808H103.799Z" fill="black"/>
<path d="M126.798 70.2865C126.819 66.0241 128.022 61.8318 130.301 58.0793C132.515 54.266 135.972 51.1329 140.224 49.0887C144.633 46.9922 149.57 45.9232 154.573 45.9819C162.727 45.9819 169.413 48.3328 174.632 53.0345C179.85 57.7363 182.46 63.6668 182.46 70.8259C182.46 78.0584 179.832 84.0521 174.576 88.8071C172 91.1537 168.904 93.0002 165.482 94.2297C162.06 95.4592 158.387 96.0449 154.696 95.9497C149.784 95.9519 144.941 94.9251 140.561 92.9528C136.196 91.0826 132.612 88.0328 130.323 84.2419C127.857 79.9229 126.645 75.126 126.798 70.2865ZM141.44 70.9658C141.44 75.7142 142.713 79.347 145.258 81.8644C146.427 83.05 147.869 84.0002 149.486 84.6513C151.103 85.3023 152.859 85.6391 154.635 85.6391C156.41 85.6391 158.166 85.3023 159.783 84.6513C161.4 84.0002 162.842 83.05 164.011 81.8644C166.534 79.3337 167.795 75.6709 167.795 70.8759C167.795 66.2141 166.534 62.6112 164.011 60.0672C162.848 58.8728 161.408 57.9146 159.79 57.2578C158.172 56.601 156.414 56.261 154.635 56.261C152.855 56.261 151.097 56.601 149.479 57.2578C147.861 57.9146 146.421 58.8728 145.258 60.0672C142.698 62.5845 141.417 66.2174 141.417 70.9658H141.44Z" fill="black"/>
<path d="M189.702 98.0275L205.999 99.7857C206.039 100.445 206.225 101.091 206.548 101.686C206.871 102.281 207.324 102.813 207.88 103.252C209.232 104.151 211.372 104.601 214.277 104.601C218.032 104.601 220.825 104.108 222.657 103.122C223.989 102.375 224.994 101.248 225.507 99.9255C226.054 98.0279 226.274 96.0677 226.16 94.1116V87.1189C221.902 92.2868 216.523 94.8708 210.02 94.8708C206.602 94.9405 203.221 94.2268 200.204 92.7989C197.187 91.371 194.637 89.277 192.799 86.7193C189.488 82.4238 187.828 77.096 187.821 70.736C187.821 62.7444 189.998 56.6175 194.353 52.3553C196.373 50.3007 198.876 48.6635 201.686 47.559C204.496 46.4545 207.544 45.9093 210.617 45.9619C217.285 45.9619 222.785 48.5592 227.117 53.7538V47.0508H240.475V90.0059C240.475 95.6533 239.949 99.8722 238.898 102.663C238.063 105.144 236.546 107.403 234.483 109.236C232.301 110.974 229.707 112.254 226.892 112.982C222.99 113.969 218.942 114.424 214.886 114.33C205.74 114.33 199.256 112.942 195.435 110.165C193.618 108.922 192.154 107.321 191.159 105.487C190.163 103.654 189.664 101.64 189.702 99.6058C189.657 99.1363 189.668 98.6269 189.702 98.0275ZM202.451 69.9668C202.451 75.0415 203.559 78.7576 205.774 81.1152C206.743 82.2235 207.986 83.1191 209.408 83.7323C210.83 84.3456 212.392 84.6601 213.973 84.6515C215.658 84.6668 217.326 84.3493 218.855 83.7221C220.384 83.0949 221.737 82.1737 222.815 81.0253C225.21 78.6078 226.411 75.0282 226.419 70.2865C226.419 65.3317 225.266 61.6688 222.961 59.298C221.91 58.1495 220.578 57.2287 219.065 56.6055C217.553 55.9824 215.9 55.6733 214.232 55.7018C212.611 55.6736 211.004 55.9781 209.536 56.5915C208.069 57.2049 206.782 58.1107 205.774 59.2381C203.559 61.5623 202.451 65.1386 202.451 69.9668Z" fill="black"/>
<path d="M251.952 40.5676V28.8498H266.222V40.5676H251.952ZM251.952 94.8908V47.0508H266.222V94.8808L251.952 94.8908Z" fill="black"/>
<path d="M325.262 61.186L311.195 63.4437C310.925 61.2819 309.781 59.2802 307.974 57.8095C306.13 56.5006 303.812 55.8297 301.453 55.9215C299.849 55.8615 298.251 56.1242 296.778 56.6899C295.306 57.2556 293.997 58.1097 292.949 59.1881C290.832 61.3658 289.773 65.0053 289.773 70.1067C289.773 75.7807 290.847 79.7766 292.994 82.0941C294.029 83.2372 295.352 84.1496 296.856 84.7585C298.36 85.3673 300.003 85.6556 301.655 85.6005C304.083 85.6896 306.458 84.9576 308.3 83.5526C310.035 82.194 311.251 79.8365 311.961 76.5599L325.972 78.6777C324.515 84.3784 321.722 88.6872 317.592 91.6042C313.463 94.5211 307.929 95.9763 300.991 95.9696C293.107 95.9696 286.818 93.7619 282.125 89.3466C277.432 84.9312 275.09 78.8209 275.097 71.0157C275.097 63.124 277.448 56.9771 282.148 52.575C286.848 48.1729 293.231 45.9719 301.295 45.9719C307.865 45.9719 313.087 47.2273 316.962 49.738C320.836 52.2487 323.603 56.0647 325.262 61.186Z" fill="black"/>
<path d="M353.532 47.0508H361.416V43.4446C361.416 39.4487 361.901 36.4519 362.869 34.454C363.969 32.3294 365.863 30.6073 368.231 29.5791C371.28 28.2456 374.654 27.6037 378.052 27.711C382.102 27.7075 386.129 28.2567 389.991 29.3393L388.065 38.1601C385.919 37.6946 383.719 37.4532 381.51 37.4408C380.699 37.3658 379.879 37.4416 379.104 37.6635C378.328 37.8854 377.613 38.2485 377.004 38.7295C376.115 39.5786 375.664 41.2269 375.664 43.6543V47.0408H386.33V57.0304H375.664V94.9107H361.45V57.0004H353.566L353.532 47.0508Z" fill="black"/>
<path d="M405.466 94.8808H391.196V47.0508H404.452V53.8437C406.705 50.6337 408.743 48.5193 410.568 47.5003C412.411 46.4699 414.551 45.9355 416.729 45.9619C420.047 45.981 423.296 46.8067 426.122 48.3494L421.707 59.338C419.744 58.0917 417.417 57.3737 415.006 57.2701C413.181 57.241 411.402 57.7741 409.971 58.7785C408.586 59.7775 407.493 61.5157 406.693 64.073C405.894 66.6303 405.5 71.9647 405.5 80.0563L405.466 94.8808Z" fill="black"/>
<path d="M465.159 94.8808V87.7183C463.187 90.2596 460.526 92.3207 457.422 93.712C454.295 95.1664 450.816 95.9241 447.285 95.9197C443.887 95.9667 440.532 95.2374 437.543 93.8019C434.76 92.4823 432.559 90.3713 431.292 87.8082C430.008 85.2508 429.366 81.7212 429.366 77.2193V47.0508H443.647V69.0278C443.647 75.7541 443.91 79.8731 444.436 81.3849C444.905 82.838 445.913 84.1085 447.296 84.9911C448.852 85.9225 450.703 86.3881 452.579 86.3197C454.919 86.3455 457.21 85.724 459.134 84.5416C460.948 83.4807 462.333 81.9338 463.087 80.1262C463.838 78.368 464.195 74.0659 464.157 67.2197V47.0508H478.427V94.8808H465.159Z" fill="black"/>
<path d="M490.602 40.5676V28.8498H504.873V40.5676H490.602ZM490.602 94.8908V47.0508H504.873V94.8808L490.602 94.8908Z" fill="black"/>
<path d="M541.624 47.0508V57.1303H531.881V76.4101C531.794 78.6872 531.884 80.9669 532.151 83.233C532.347 83.8835 532.798 84.4505 533.424 84.8313C534.132 85.2628 534.976 85.4832 535.834 85.4606C537.81 85.3336 539.749 84.9255 541.578 84.2519L542.795 94.0616C539.226 95.371 535.393 96.017 531.532 95.9596C529.149 95.9922 526.782 95.6016 524.571 94.8109C522.781 94.2094 521.219 93.1703 520.066 91.814C518.985 90.3289 518.299 88.6446 518.061 86.8891C517.663 83.9295 517.509 80.948 517.6 77.9685V57.1303H511.056V47.0508H517.6V33.9545H531.926V47.0508H541.624Z" fill="black"/>
<path d="M253.286 106.338V102.668H278.912V106.338H268.168V136.835H264.03V106.338H253.286ZM291.791 137.369C289.322 137.369 287.192 136.824 285.401 135.734C283.622 134.633 282.248 133.098 281.281 131.129C280.324 129.15 279.846 126.847 279.846 124.222C279.846 121.598 280.324 119.284 281.281 117.282C282.248 115.269 283.594 113.701 285.318 112.578C287.053 111.443 289.077 110.876 291.391 110.876C292.725 110.876 294.043 111.098 295.345 111.543C296.646 111.988 297.83 112.711 298.898 113.712C299.966 114.702 300.817 116.014 301.451 117.649C302.085 119.284 302.402 121.297 302.402 123.689V125.357H282.649V121.954H298.398C298.398 120.508 298.108 119.218 297.53 118.083C296.963 116.949 296.151 116.053 295.094 115.397C294.049 114.741 292.814 114.413 291.391 114.413C289.822 114.413 288.465 114.802 287.32 115.581C286.185 116.348 285.312 117.349 284.701 118.584C284.089 119.818 283.783 121.142 283.783 122.554V124.823C283.783 126.758 284.117 128.399 284.784 129.745C285.462 131.079 286.402 132.097 287.603 132.798C288.805 133.487 290.201 133.832 291.791 133.832C292.825 133.832 293.76 133.687 294.594 133.398C295.439 133.098 296.168 132.653 296.779 132.064C297.391 131.463 297.864 130.718 298.197 129.828L302.001 130.896C301.601 132.186 300.928 133.32 299.982 134.299C299.037 135.267 297.869 136.023 296.479 136.568C295.089 137.102 293.526 137.369 291.791 137.369ZM318.801 137.369C316.399 137.369 314.33 136.802 312.595 135.667C310.86 134.533 309.525 132.97 308.591 130.979C307.657 128.988 307.19 126.714 307.19 124.156C307.19 121.553 307.668 119.256 308.624 117.266C309.592 115.264 310.938 113.701 312.662 112.578C314.397 111.443 316.421 110.876 318.734 110.876C320.536 110.876 322.16 111.21 323.606 111.877C325.052 112.544 326.236 113.478 327.159 114.68C328.083 115.881 328.655 117.282 328.878 118.884H324.941C324.64 117.716 323.973 116.682 322.939 115.781C321.915 114.869 320.536 114.413 318.801 114.413C317.266 114.413 315.92 114.813 314.764 115.614C313.618 116.404 312.723 117.521 312.078 118.967C311.444 120.402 311.127 122.087 311.127 124.022C311.127 126.002 311.438 127.726 312.061 129.194C312.695 130.662 313.585 131.802 314.73 132.614C315.887 133.426 317.244 133.832 318.801 133.832C319.824 133.832 320.753 133.654 321.587 133.298C322.421 132.942 323.128 132.431 323.706 131.763C324.284 131.096 324.696 130.295 324.941 129.361H328.878C328.655 130.874 328.105 132.236 327.226 133.448C326.359 134.65 325.208 135.606 323.773 136.318C322.349 137.019 320.692 137.369 318.801 137.369ZM338.571 121.42V136.835H334.634V102.668H338.571V115.214H338.904C339.505 113.89 340.406 112.839 341.607 112.06C342.819 111.271 344.432 110.876 346.445 110.876C348.191 110.876 349.721 111.226 351.033 111.927C352.346 112.617 353.363 113.679 354.086 115.113C354.82 116.537 355.187 118.35 355.187 120.552V136.835H351.25V120.819C351.25 118.784 350.722 117.21 349.665 116.098C348.62 114.974 347.168 114.413 345.311 114.413C344.021 114.413 342.864 114.685 341.841 115.23C340.829 115.775 340.028 116.57 339.438 117.616C338.86 118.661 338.571 119.929 338.571 121.42ZM366.328 121.42V136.835H362.39V111.21H366.194V115.214H366.528C367.128 113.912 368.04 112.867 369.264 112.077C370.487 111.276 372.067 110.876 374.002 110.876C375.737 110.876 377.255 111.232 378.556 111.944C379.858 112.644 380.87 113.712 381.593 115.147C382.316 116.57 382.677 118.372 382.677 120.552V136.835H378.74V120.819C378.74 118.806 378.217 117.238 377.172 116.114C376.126 114.98 374.691 114.413 372.867 114.413C371.611 114.413 370.487 114.685 369.497 115.23C368.519 115.775 367.746 116.57 367.178 117.616C366.611 118.661 366.328 119.929 366.328 121.42ZM400.282 137.369C397.969 137.369 395.939 136.818 394.193 135.717C392.458 134.616 391.101 133.076 390.122 131.096C389.154 129.116 388.671 126.803 388.671 124.156C388.671 121.486 389.154 119.156 390.122 117.165C391.101 115.175 392.458 113.629 394.193 112.528C395.939 111.426 397.969 110.876 400.282 110.876C402.595 110.876 404.62 111.426 406.355 112.528C408.101 113.629 409.458 115.175 410.425 117.165C411.404 119.156 411.894 121.486 411.894 124.156C411.894 126.803 411.404 129.116 410.425 131.096C409.458 133.076 408.101 134.616 406.355 135.717C404.62 136.818 402.595 137.369 400.282 137.369ZM400.282 133.832C402.039 133.832 403.485 133.382 404.62 132.481C405.754 131.58 406.594 130.395 407.139 128.927C407.684 127.459 407.956 125.869 407.956 124.156C407.956 122.443 407.684 120.847 407.139 119.368C406.594 117.888 405.754 116.693 404.62 115.781C403.485 114.869 402.039 114.413 400.282 114.413C398.525 114.413 397.079 114.869 395.944 115.781C394.81 116.693 393.97 117.888 393.425 119.368C392.88 120.847 392.608 122.443 392.608 124.156C392.608 125.869 392.88 127.459 393.425 128.927C393.97 130.395 394.81 131.58 395.944 132.481C397.079 133.382 398.525 133.832 400.282 133.832ZM421.841 102.668V136.835H417.904V102.668H421.841ZM439.463 137.369C437.149 137.369 435.119 136.818 433.373 135.717C431.638 134.616 430.281 133.076 429.303 131.096C428.335 129.116 427.851 126.803 427.851 124.156C427.851 121.486 428.335 119.156 429.303 117.165C430.281 115.175 431.638 113.629 433.373 112.528C435.119 111.426 437.149 110.876 439.463 110.876C441.776 110.876 443.8 111.426 445.535 112.528C447.282 113.629 448.638 115.175 449.606 117.165C450.585 119.156 451.074 121.486 451.074 124.156C451.074 126.803 450.585 129.116 449.606 131.096C448.638 133.076 447.282 134.616 445.535 135.717C443.8 136.818 441.776 137.369 439.463 137.369ZM439.463 133.832C441.22 133.832 442.666 133.382 443.8 132.481C444.935 131.58 445.774 130.395 446.319 128.927C446.864 127.459 447.137 125.869 447.137 124.156C447.137 122.443 446.864 120.847 446.319 119.368C445.774 117.888 444.935 116.693 443.8 115.781C442.666 114.869 441.22 114.413 439.463 114.413C437.705 114.413 436.259 114.869 435.125 115.781C433.991 116.693 433.151 117.888 432.606 119.368C432.061 120.847 431.788 122.443 431.788 124.156C431.788 125.869 432.061 127.459 432.606 128.927C433.151 130.395 433.991 131.58 435.125 132.481C436.259 133.382 437.705 133.832 439.463 133.832ZM467.428 146.978C465.526 146.978 463.891 146.734 462.523 146.244C461.155 145.766 460.015 145.132 459.103 144.342C458.202 143.564 457.485 142.73 456.951 141.84L460.087 139.638C460.443 140.105 460.894 140.639 461.439 141.239C461.984 141.851 462.729 142.379 463.674 142.824C464.631 143.28 465.882 143.508 467.428 143.508C469.497 143.508 471.204 143.008 472.55 142.007C473.895 141.006 474.568 139.438 474.568 137.302V132.097H474.235C473.946 132.564 473.534 133.142 473 133.832C472.477 134.51 471.721 135.117 470.731 135.65C469.752 136.173 468.429 136.435 466.761 136.435C464.692 136.435 462.834 135.945 461.188 134.966C459.553 133.988 458.258 132.564 457.301 130.696C456.356 128.827 455.883 126.558 455.883 123.889C455.883 121.264 456.345 118.978 457.268 117.032C458.191 115.075 459.476 113.562 461.122 112.494C462.768 111.415 464.67 110.876 466.827 110.876C468.496 110.876 469.819 111.154 470.798 111.71C471.788 112.255 472.544 112.878 473.067 113.579C473.601 114.268 474.012 114.835 474.301 115.28H474.702V111.21H478.506V137.569C478.506 139.771 478.005 141.562 477.004 142.941C476.014 144.331 474.68 145.349 473 145.994C471.332 146.65 469.474 146.978 467.428 146.978ZM467.294 132.898C468.874 132.898 470.208 132.536 471.298 131.813C472.388 131.09 473.217 130.05 473.784 128.694C474.351 127.337 474.635 125.713 474.635 123.822C474.635 121.976 474.357 120.346 473.801 118.934C473.245 117.521 472.422 116.415 471.332 115.614C470.242 114.813 468.896 114.413 467.294 114.413C465.626 114.413 464.236 114.835 463.124 115.681C462.023 116.526 461.194 117.66 460.638 119.084C460.093 120.508 459.82 122.087 459.82 123.822C459.82 125.602 460.098 127.175 460.655 128.543C461.222 129.9 462.056 130.968 463.157 131.747C464.269 132.514 465.648 132.898 467.294 132.898ZM485.713 136.835V111.21H489.65V136.835H485.713ZM487.715 106.939C486.947 106.939 486.286 106.677 485.729 106.155C485.184 105.632 484.912 105.003 484.912 104.269C484.912 103.535 485.184 102.907 485.729 102.384C486.286 101.861 486.947 101.6 487.715 101.6C488.482 101.6 489.138 101.861 489.683 102.384C490.239 102.907 490.518 103.535 490.518 104.269C490.518 105.003 490.239 105.632 489.683 106.155C489.138 106.677 488.482 106.939 487.715 106.939ZM507.605 137.369C505.136 137.369 503.006 136.824 501.216 135.734C499.436 134.633 498.063 133.098 497.095 131.129C496.138 129.15 495.66 126.847 495.66 124.222C495.66 121.598 496.138 119.284 497.095 117.282C498.063 115.269 499.408 113.701 501.132 112.578C502.867 111.443 504.892 110.876 507.205 110.876C508.54 110.876 509.858 111.098 511.159 111.543C512.46 111.988 513.645 112.711 514.712 113.712C515.78 114.702 516.631 116.014 517.265 117.649C517.899 119.284 518.216 121.297 518.216 123.689V125.357H498.463V121.954H514.212C514.212 120.508 513.923 119.218 513.344 118.083C512.777 116.949 511.965 116.053 510.909 115.397C509.863 114.741 508.629 114.413 507.205 114.413C505.637 114.413 504.28 114.802 503.134 115.581C502 116.348 501.127 117.349 500.515 118.584C499.903 119.818 499.597 121.142 499.597 122.554V124.823C499.597 126.758 499.931 128.399 500.598 129.745C501.277 131.079 502.217 132.097 503.418 132.798C504.619 133.487 506.015 133.832 507.605 133.832C508.64 133.832 509.574 133.687 510.408 133.398C511.253 133.098 511.982 132.653 512.594 132.064C513.205 131.463 513.678 130.718 514.012 129.828L517.815 130.896C517.415 132.186 516.742 133.32 515.797 134.299C514.851 135.267 513.684 136.023 512.293 136.568C510.903 137.102 509.34 137.369 507.605 137.369ZM542.357 116.949L538.82 117.95C538.597 117.36 538.269 116.787 537.835 116.231C537.413 115.664 536.834 115.197 536.1 114.83C535.366 114.463 534.426 114.279 533.281 114.279C531.713 114.279 530.406 114.641 529.36 115.364C528.326 116.075 527.809 116.982 527.809 118.083C527.809 119.062 528.165 119.835 528.876 120.402C529.588 120.969 530.7 121.442 532.213 121.82L536.017 122.754C538.308 123.31 540.015 124.161 541.139 125.307C542.262 126.441 542.824 127.904 542.824 129.695C542.824 131.163 542.401 132.475 541.556 133.632C540.722 134.789 539.554 135.701 538.052 136.368C536.551 137.035 534.805 137.369 532.814 137.369C530.2 137.369 528.037 136.802 526.324 135.667C524.611 134.533 523.527 132.876 523.071 130.696L526.808 129.761C527.164 131.14 527.837 132.175 528.826 132.864C529.827 133.554 531.134 133.899 532.747 133.899C534.582 133.899 536.039 133.509 537.118 132.731C538.208 131.941 538.753 130.996 538.753 129.895C538.753 129.005 538.442 128.26 537.819 127.659C537.196 127.048 536.239 126.591 534.949 126.291L530.678 125.29C528.331 124.734 526.608 123.872 525.506 122.704C524.416 121.525 523.871 120.052 523.871 118.283C523.871 116.837 524.277 115.558 525.089 114.446C525.912 113.334 527.03 112.461 528.443 111.827C529.866 111.193 531.479 110.876 533.281 110.876C535.817 110.876 537.808 111.432 539.253 112.544C540.71 113.656 541.745 115.125 542.357 116.949Z" fill="#3883F1"/>
<path d="M144.83 113.082C143.152 112.213 141.53 112.382 139.604 112.532C138.11 112.581 136.69 113.127 135.628 114.061L134.142 111.843L133.218 113.321L132.204 111.643L131.461 113.152C130.155 111.803 128.994 112.942 127.677 113.341L127.485 111.923C125.886 112.213 124.23 114.67 122.62 111.683C121.764 112.822 121.077 113.421 119.714 112.093C119.526 111.879 119.274 111.718 118.987 111.627C118.699 111.537 118.389 111.521 118.092 111.582C117.795 111.643 117.523 111.778 117.31 111.971C117.096 112.164 116.95 112.407 116.887 112.672L113.587 113.002L113.508 111.843L112.652 112.502L111.627 110.624L111.165 112.263L110.039 111.953L109.825 113.252C108.316 113.142 106.615 112.592 105.32 113.032C103.338 113.694 101.723 115.011 100.815 116.708C99.6883 118.706 100.037 120.354 100.443 122.302C98.7422 123.091 97.4357 124.04 99.1477 125.958C99.418 126.258 99.1477 127.217 98.8098 127.617C98.3711 128.023 98.0741 128.534 97.9542 129.087C97.8344 129.639 97.8968 130.211 98.134 130.733C98.1865 131.002 98.1787 131.277 98.1111 131.542C98.0434 131.808 97.9173 132.059 97.7398 132.282C97.1306 132.949 96.46 133.571 95.735 134.14L97.3231 136.048L95.9602 136.287C96.208 136.597 96.4108 136.867 96.2531 136.647C95.5554 137.949 94.9351 139.283 94.3947 140.643C93.9217 142.091 92.7503 142.851 90.6104 142.921C90.3175 142.921 90.0472 143.43 89.9796 143.5C85.1028 139.704 85.0127 134.379 85.0014 129.355C83.7287 127.227 85.9588 124.989 83.7174 123.121C83.3232 122.792 83.4696 121.992 83.2106 121.473C82.8862 120.97 82.5091 120.495 82.0843 120.054L82.9628 120.454L83.0867 120.154L82.0505 120.094L82.7601 117.497C82.7601 117.497 82.2082 117.327 82.2195 117.237C82.456 115.999 82.7713 114.78 83.1543 113.182L81.0932 111.983C83.3458 110.145 83.1205 105.799 80.0682 102.992L82.1181 101.993C81.1044 100.245 80.1358 98.9965 80.6089 96.9985C81.0819 95.0006 80.3048 92.9428 80.1471 90.9049C80.0682 90.0158 80.1471 89.1268 80.1471 88.0879C80.1471 88.0879 79.5614 87.978 79.5501 87.8181C79.5191 87.3422 79.6278 86.8672 79.8655 86.4396C80.1913 85.9622 80.5685 85.5139 80.9918 85.101C80.4399 84.7613 79.8655 84.4117 79.3249 84.102C78.7843 83.7924 78.4351 83.7424 77.5566 83.3928L79.5614 82.6735L76.9259 81.0552L78.559 80.5258L76.7795 78.6178L79.032 78.1682V77.6388L76.1375 76.6398L78.0409 76.3601L78.7505 74.3622L76.6105 73.5431L77.489 72.7239L75.4617 71.8349L76.9709 71.4852C76.847 70.2066 76.7232 68.9679 76.5993 67.7192L77.3088 67.4894L75.2364 66.5903L77.0498 65.2218L76.7119 65.3816L76.8921 65.5514L77.016 65.2218C76.9146 64.5325 76.8245 63.8332 76.7232 63.1439C76.6218 62.4547 76.5542 61.7054 76.4416 60.9962C76.1713 59.3879 75.8672 57.7995 75.5969 56.1912C75.4504 55.3321 75.4054 54.453 75.1801 53.6039C74.9549 52.7548 74.5719 51.8657 74.234 50.9367L75.4842 51.1265C75.3909 50.5198 75.2013 49.9279 74.9211 49.3684C73.9158 47.8107 73.5198 46.0019 73.7948 44.2237C73.7948 43.8242 73.2542 43.3846 72.9613 42.9651C72.5446 44.0239 72.2518 44.7332 71.9815 45.4524C71.8576 45.7821 71.5872 46.2117 71.7111 46.4514C72.3081 47.4504 72.7361 48.4493 71.7111 49.5482C71.3958 49.8978 72.0603 50.8668 72.1053 51.5461C72.0654 52.0549 71.9441 52.5561 71.7449 53.0345H71.1593L72.0828 54.1933L71.0692 55.6018H71.1255C70.7384 55.6909 70.3614 55.8113 69.9992 55.9615C70.2244 56.9604 70.5398 57.9594 70.8552 59.0982L69.5261 59.3379L71.0466 60.0871L70.2019 61.2659L72.2067 61.9652L69.9541 62.6345L71.0804 63.9331L69.6613 64.013V66.1208L70.6862 66.6403L69.1545 67.5393L71.407 68.0988L69.5261 69.0977C70.3483 69.9368 72.0603 70.5063 69.8528 71.3554L71.3958 72.1345L69.605 72.624L70.6524 73.4432C70.2357 74.3522 69.7852 75.2912 69.3459 76.2403L69.008 76.4101H70.3258L70.5623 78.408C70.3483 78.5978 69.436 79.0074 69.436 79.4069C69.4397 80.4467 69.1697 81.4728 68.6476 82.4038C67.9268 83.8023 68.4561 85.9101 69.0193 87.5684C69.6838 89.5663 69.3797 90.9149 66.992 91.8739L68.5913 92.2235C68.5012 93.3623 68.3886 94.601 68.3097 95.8497C68.2422 96.8487 68.1971 97.9176 68.1408 98.9565H67.5439L68.7715 100.505C68.535 101.674 68.3886 102.363 68.2534 103.062C68.2534 103.222 68.2534 103.472 68.1408 103.532C66.7667 104.391 67.5213 105.979 66.6203 107.018C66.4739 107.188 66.6879 107.607 66.6991 107.917C66.6991 108.516 66.6991 109.116 66.6991 109.715C66.778 110.604 67.0145 111.493 67.037 112.382C66.9996 113.252 66.9056 114.12 66.7554 114.98L66.0121 115.12C66.1648 115.539 66.2741 115.971 66.3387 116.408C66.4513 118.256 66.7892 120.144 64.8858 121.593C64.593 121.813 64.7394 122.502 64.6605 123.171C60.054 124.28 60.054 124.28 58.7475 123.451C57.8802 120.864 56.0557 118.576 55.6952 115.819C55.3323 115.353 54.8961 114.936 54.4 114.58C53.9053 114.374 53.3769 114.239 52.8345 114.181L54.2761 111.653L52.0235 111.473L53.1498 110.085L51.2239 109.495L52.2713 108.746L50.3228 105.54L50.8972 104.98C48.7122 103.132 48.6446 102.623 50.03 101.664L48.4306 99.6458L45.8965 100.944L46.6961 101.534L45.232 102.243L45.8289 102.373C45.5924 104.551 45.4122 106.748 45.0855 108.916C45.0416 109.996 44.6973 111.05 44.0831 111.983C43.5988 112.542 42.2248 112.462 41.2674 112.732C40.907 112.842 40.6367 113.172 40.2875 113.321C39.6906 113.561 38.6882 114.071 38.4855 113.901C37.3592 112.972 36.3568 113.501 35.4107 113.901C35.1511 114.027 34.8635 114.101 34.5681 114.119C34.2727 114.136 33.9767 114.095 33.7008 114C33.4249 113.905 33.1759 113.757 32.9712 113.567C32.7666 113.378 32.6112 113.151 32.5161 112.902L28.1348 113.461C27.2563 113.571 26.3778 113.641 25.488 113.731L25.4317 114.26L24.3054 113.112C23.6747 113.391 22.9201 113.931 22.6948 113.791C20.7125 112.582 18.46 113.291 16.7029 113.641C14.4504 114.091 12.0063 113.122 9.84381 114.37L9.58476 112.992L8.14311 113.911L7.76017 112.702C6.0482 113.911 2.68058 114.121 1.35155 113.132C2.24132 111.653 2.16248 110.335 0.518095 109.276L0 108.097L1.03619 108.277C1.22766 107.538 1.35155 106.279 1.62186 106.209C2.63655 106.243 3.63937 106.415 4.59528 106.718L5.01201 105.849L6.01441 106.848L6.61135 105.849C7.25333 106.019 7.86153 106.159 8.43594 106.349C9.25814 106.618 10.0803 107.218 10.8462 107.148C11.8763 106.906 12.8569 106.522 13.752 106.009L14.8783 107.008L16.0835 106.389L16.534 107.827L16.9733 106.219L18.4149 107.757L18.674 105.809L20.003 107.088L20.217 105.34C21.3433 106.439 22.3231 107.617 23.9901 106.229L24.801 107.398L26.986 105.949C28.8669 107.068 36.8298 105.809 39.4428 103.831C37.4831 102.023 39.7694 100.445 39.8258 98.7267C39.9864 97.7506 40.2775 96.7948 40.693 95.8797L40.1636 95.7498L42.4162 93.9317H40.1636C40.7493 92.8229 41.2899 91.8839 41.7292 90.9349C41.7292 90.775 41.7292 90.6252 41.7292 90.4654L41.5039 90.7251L40.8619 90.5753L43.2947 86.7193L42.9456 86.5095L43.1033 86.3896L43.4862 86.8591L44.6125 84.8612L45.8627 85.5805L45.9415 84.2818L48.9825 85.2808L49.2078 84.8413L50.4692 87.5185L51.8095 87.1688L51.4266 88.1678L51.2576 88.6173H51.8321L52.4853 89.7861L53.3525 91.8639L52.857 92.1436L53.6116 92.2535C53.6116 93.4023 53.2174 94.5511 53.6116 95.3603C54.0058 96.1694 55.301 96.3592 56.2809 96.8487L54.5915 97.4281L56.7765 100.425L56.6751 100.974L56.754 101.034L57.0468 101.444L58.6011 101.564H58.6574L57.7451 101.903L56.799 102.603L60.0089 104.69C60.5748 103.757 60.9007 102.723 60.963 101.665C61.0253 100.606 60.8226 99.5479 60.3694 98.5669V94.5111L61.4957 94.1815L60.3694 93.6321L62.4305 92.5132L59.8062 92.2335L61.9462 90.9249L60.0315 90.1857C60.7298 89.3865 61.7547 88.6972 61.9462 87.8481C62.1376 86.999 61.3492 86.2198 60.9325 85.2808C62.0588 84.2818 62.0588 82.0742 60.9325 80.286C62.194 78.6577 63.1851 77.2892 62.5544 75.0815C62.2052 73.7429 60.9888 71.8648 63.1513 70.4963C63.4216 70.3264 62.8923 69.1377 62.6895 68.4284C62.4868 67.7192 62.194 66.94 61.9124 66.0609C63.3991 65.6813 63.8834 64.982 62.4643 64.063L64.0298 62.5446L62.1376 61.8253C62.6107 59.5677 63.0499 57.4099 63.5906 54.8326C64.7957 54.3132 65.0322 53.3842 63.4779 52.0955C63.2206 51.9547 63.0132 51.7524 62.8794 51.5119C62.7456 51.2714 62.6909 51.0023 62.7214 50.7355C62.752 50.4687 62.8666 50.2149 63.0522 50.0031C63.2377 49.7914 63.4868 49.6303 63.7708 49.5382C64.0861 49.3783 64.1087 48.779 64.2889 48.3894C64.9534 46.9809 63.8834 45.3925 65.0998 43.944C66.4739 42.2957 65.0322 39.9482 66.2261 38.1501C66.35 37.9703 65.4152 37.2111 64.807 36.5418C65.1223 36.1921 67.0595 35.7426 65.5616 35.2032C65.9333 33.8046 66.778 32.446 66.4626 31.3472C65.9954 29.3204 65.9496 27.235 66.3275 25.1936C66.3743 23.8175 66.7144 22.4617 67.3299 21.1978C67.7466 20.4286 66.8005 19.12 66.6316 18.0311C66.5871 17.2602 66.6286 16.4872 66.7554 15.7235L67.7353 15.5837C66.7104 13.7456 67.1609 10.8486 68.7377 9.8397L67.1384 8.29131L68.4224 7.60204L67.0595 6.35334L67.7804 6.09362H68.3548L68.2084 5.60413C68.0904 4.87529 68.0904 4.13525 68.2084 3.40642C68.5382 2.44916 69.2364 1.62491 70.181 1.07727C71.1257 0.529635 72.2571 0.29334 73.3781 0.409557C74.0339 0.343041 74.6774 0.202034 75.2928 -0.0100021C75.8405 0.492893 76.2273 1.11613 76.4134 1.7956C76.5995 2.47507 76.5781 3.18624 76.3515 3.85595C76.3515 3.96584 77.016 4.29549 76.9822 4.27551C76.8358 6.16354 76.7119 7.82181 76.5542 9.82971L77.8044 11.1383L76.2276 11.5879L77.8607 12.8765L76.9034 13.1662L78.1085 13.9354C77.9959 15.4538 77.8832 17.0522 77.7593 18.7104L79.7754 19.0201L77.9283 20.019L79.6628 20.8881L77.9283 21.5874L79.9669 24.0548L78.6829 24.7141L80.3273 25.9029L78.2099 26.1726L80.1696 30.1684L78.7843 30.7678L80.5075 31.6669L78.6716 32.4461L80.0345 32.8157C80.1809 34.2841 80.3836 35.6327 80.4399 36.9813C80.4399 37.9803 80.3273 38.9792 80.271 39.9782L79.6628 38.9792L79.1334 39.4088L80.2597 39.9182L81.386 41.6764L79.7078 42.5655L81.386 42.9451C81.5324 43.6343 81.6901 44.3836 81.8703 45.2027L80.5525 45.5623L82.1068 46.0019L80.9242 47.3105L83.1768 47.1307L81.7915 48.719L83.1318 49.0187L82.0843 49.5981C82.501 49.9178 83.2106 50.2574 83.2106 50.4972C82.9853 52.0655 82.5911 53.6139 82.242 55.2122L83.6611 55.482L82.5348 56.9005L84.6635 57.8994L82.7263 59.7575L84.0891 61.6555C83.6767 62.1209 83.4889 62.7123 83.567 63.3002C83.6451 63.8881 83.9827 64.4246 84.5058 64.7922C85.0352 65.2517 84.9564 66.2607 84.8775 67.0698L85.6772 69.5872L85.0803 69.7071C85.0534 70.1336 85.099 70.5613 85.2154 70.9758C85.4323 71.3517 85.6928 71.7066 85.9925 72.0346C85.7898 72.8138 85.5646 73.4632 85.4632 74.1325C85.3837 74.86 85.3837 75.5926 85.4632 76.3202L85.5983 81.7245L85.3393 81.9543H85.8574C86.3111 82.3213 86.7363 82.7151 87.1301 83.133C85.9024 84.4317 88.8421 85.8102 87.0062 87.029C88.4366 88.5374 86.4431 90.9249 88.7182 92.2036L88.155 92.733C87.941 92.6131 87.7158 92.5032 87.4905 92.3934L87.6482 93.2325C88.0659 93.5591 88.4435 93.9241 88.7745 94.3213C89.2701 95.0006 90.2499 95.8897 88.7745 95.9097V99.2762H89.3489V104.501L90.8919 106.499L89.5179 107.048C89.7994 107.747 90.1035 108.447 90.3738 109.166C90.7793 110.265 91.9844 111.374 90.2725 112.492C90.1373 112.582 90.7342 113.561 91.0947 114.34L89.5291 115.339L91.9281 115.589L90.6104 117.487C90.8131 118.226 90.982 118.866 91.1622 119.485L90.4301 120.054L90.8919 120.404L91.5001 119.785H93.0094L93.2909 116.968L94.5186 116.508C94.0472 115.488 93.8152 114.393 93.8365 113.29C93.8578 112.188 94.132 111.1 94.6425 110.095C95.5323 108.377 95.5886 106.269 97.6046 105.2C98.0777 105.2 98.7309 105.2 99.3166 105.34C101.457 105.719 103.912 104.641 105.793 106.449C106.018 106.668 106.739 106.628 107.178 106.519C108.304 106.229 109.431 105.849 110.647 105.47L110.839 106.738H113.756L115.411 104.221L116.031 105.819L117.957 104.69L117.135 106.968L118.982 105.969L119.398 106.968C120.009 106.391 120.676 105.863 121.392 105.39C122.209 105.013 123.06 104.699 123.937 104.451L123.768 106.129L124.895 105.35L125.278 106.828L126.269 104.78C127.395 104.571 128.24 106.898 129.58 105.05L131.348 105.969C132.059 105.665 132.819 105.463 133.601 105.37C135.088 105.49 136.541 106.019 137.994 106.019C139.12 106.019 140.179 105.35 141.316 105.16C141.967 105.159 142.614 105.253 143.231 105.44L143.907 105.849L143.76 104.98L145.292 104.501C145.292 104.271 145.348 103.841 145.438 102.812C145.956 103.751 146.193 104.181 146.429 104.641L146.948 103.851L148.434 105.26L149.775 104.381C149.921 105.649 149.921 105.649 154.832 105.04L154.246 106.039C155.98 106.738 156.251 107.388 155.541 108.846C155.417 109.25 155.356 109.667 155.361 110.085C155.147 111.613 153.007 110.734 152.433 111.923C152.117 112.582 151.667 113.371 150.462 112.922C149.948 112.797 149.418 112.733 148.885 112.732L148.705 112.113L147.747 113.611C147.533 112.732 147.409 112.253 147.24 111.543L146.249 113.092L145.269 111.723L144.83 113.162V113.082Z" fill="#3883F1"/>
</g>
<defs>
<clipPath id="clip0_2_3">
<rect width="544" height="153" fill="white"/>
</clipPath>
</defs>
</svg>
