<svg version="1.1" id="Layer_1" xmlns="http://www.w3.org/2000/svg" xmlns:xlink="http://www.w3.org/1999/xlink" x="0px" y="0px"
	 width="100%" viewBox="0 0 500 500" enable-background="new 0 0 500 500" xml:space="preserve">
<path fill="#FFFFFF" opacity="1.000000" stroke="none" 
	d="
M322.000000,501.000000 
	C216.000031,501.000000 110.500031,500.978699 5.000181,501.095459 
	C1.576329,501.099243 0.903033,500.423889 0.905298,497.000031 
	C1.013776,333.000122 1.013757,169.000137 0.905338,5.000257 
	C0.903075,1.576979 1.575762,0.903020 4.999866,0.905285 
	C168.999756,1.013775 332.999725,1.013760 496.999634,0.905354 
	C500.422638,0.903091 501.096985,1.575410 501.094727,4.999746 
	C500.986206,168.999634 500.986237,332.999603 501.094604,496.999512 
	C501.096893,500.422272 500.426025,501.105042 497.000214,501.097076 
	C438.833710,500.961609 380.666809,501.000000 322.000000,501.000000 
z"/>
<path fill="#0D186C" opacity="1.000000" stroke="none" 
	d="
M240.605850,124.607742 
	C267.283081,105.434837 297.030670,114.026001 316.939240,135.880630 
	C332.383667,152.834732 339.266968,173.331055 340.989838,195.829926 
	C341.447113,201.801315 340.314087,208.346939 342.435028,213.612305 
	C344.592468,218.968353 351.763336,220.427521 356.396423,224.095764 
	C369.816925,234.721527 382.131165,246.249573 389.414062,262.185211 
	C405.788849,298.014679 390.114960,332.067108 352.279846,342.992310 
	C329.133575,349.675995 306.866119,345.940155 284.955994,337.600037 
	C279.679138,335.591400 274.392120,333.579865 269.249939,331.259125 
	C266.530670,330.031891 264.499298,330.339569 261.901398,331.774902 
	C243.754669,341.801025 224.605377,348.580048 203.529465,347.833405 
	C174.369476,346.800293 152.685516,329.849121 147.385803,303.708679 
	C143.499466,284.539673 148.113846,266.747162 157.728226,250.074341 
	C168.288544,231.761078 184.328552,219.209518 202.056335,208.566406 
	C204.860428,206.882919 205.795471,205.183777 205.949936,201.951172 
	C207.006439,179.843903 211.907379,158.832016 224.930801,140.410553 
	C229.182632,134.396393 234.436844,129.277710 240.605850,124.607742 
z"/>
<path fill="#0060B0" opacity="1.000000" stroke="none" 
	d="
M313.424988,190.195099 
	C311.719818,180.913666 310.067017,171.954865 304.153809,163.927246 
	C303.349091,163.387497 303.125427,163.100098 302.762146,162.566620 
	C302.497986,162.176346 302.393066,162.016754 302.128906,161.613739 
	C301.628967,160.864777 301.262024,160.379486 300.630615,159.676239 
	C297.491821,154.502579 293.824127,150.210159 289.048157,147.055786 
	C277.238190,139.255722 264.239136,144.210632 254.705612,154.111221 
	C248.895920,160.144608 247.425766,168.117233 244.361526,175.786194 
	C243.382935,182.352264 242.578781,188.610214 241.816010,194.873215 
	C238.681335,220.611191 245.510483,243.730438 260.236816,264.759979 
	C261.186859,266.116638 262.215790,267.425293 263.289856,268.686615 
	C271.213684,277.991852 270.430023,275.441559 262.447540,284.170044 
	C259.845490,287.015320 258.630341,285.671204 257.038940,283.450378 
	C252.596924,277.251556 248.101196,271.091248 243.337555,264.704895 
	C242.866608,264.366699 242.684784,264.239319 242.299927,263.845581 
	C241.857895,263.191742 241.626892,262.799530 241.216431,262.097717 
	C240.907135,261.579193 240.784790,261.365814 240.481949,260.820984 
	C232.033310,243.660187 228.077530,225.725601 226.620148,206.729492 
	C226.670517,200.834534 226.488525,195.356430 226.777039,189.471497 
	C227.956757,184.293869 228.559540,179.421799 229.705307,174.288757 
	C229.801727,173.701797 229.850677,173.473221 229.997162,172.917175 
	C230.313965,171.979645 230.589508,171.391602 230.886932,170.492004 
	C231.029007,170.018463 231.086441,169.831955 231.241837,169.374847 
	C231.487228,168.762543 231.646072,168.426224 231.938812,167.860565 
	C232.141891,167.473145 232.225784,167.322083 232.441849,166.953705 
	C232.751450,166.456436 232.917816,166.170090 233.173920,165.657013 
	C233.274734,165.436676 233.487030,165.003601 233.603241,164.794037 
	C233.878143,164.307388 234.025909,164.024567 234.257599,163.512009 
	C234.352463,163.287979 234.562332,162.841660 234.676743,162.621063 
	C234.942291,162.096542 235.085144,161.788788 235.311615,161.222443 
	C235.465485,160.791046 235.526825,160.614075 235.669250,160.159943 
	C235.896133,159.278305 236.003662,158.666519 236.170242,157.706726 
	C243.295441,144.213486 253.105774,134.612793 268.861206,133.790421 
	C287.408661,132.822327 301.826874,140.033646 310.754700,156.782349 
	C314.037781,162.941483 316.163574,169.622437 318.892151,176.464386 
	C319.118835,177.375885 319.198181,177.908997 319.268646,178.857773 
	C318.605438,183.555939 318.700989,188.231888 313.424988,190.195099 
z"/>
<path fill="#71155C" opacity="1.000000" stroke="none" 
	d="
M301.785614,316.194916 
	C312.821655,318.609985 323.685883,320.964996 335.426086,319.934479 
	C337.883453,318.183960 340.460419,318.008087 342.850403,317.493958 
	C368.782501,311.915314 368.513916,288.468475 359.139435,273.884735 
	C356.419464,269.653351 352.886658,266.185638 349.249939,262.282654 
	C340.631592,255.528168 332.100800,249.252930 322.666229,244.450180 
	C308.245453,237.109146 292.782349,233.383148 276.637299,233.135803 
	C270.386841,233.040054 264.115784,234.289200 257.431152,234.892242 
	C254.472473,231.576843 252.517700,228.112839 253.777618,223.409409 
	C272.753937,217.864670 291.270050,220.030792 309.655090,224.814987 
	C315.244751,226.269562 320.670135,228.355484 326.552979,230.209503 
	C330.912231,230.855957 333.920776,233.732422 338.006470,234.947632 
	C338.527802,235.182388 338.729706,235.288712 339.208527,235.592514 
	C340.776123,237.002518 342.064819,238.217865 344.110046,238.938858 
	C344.643158,239.163361 344.855560,239.261536 345.378845,239.532104 
	C346.103394,239.960327 346.513672,240.221573 347.244446,240.686218 
	C363.740875,250.900085 372.572144,265.974670 375.900177,284.155426 
	C378.727234,299.599548 371.009003,311.123077 359.528748,320.436279 
	C351.306305,327.106628 341.961670,329.983673 331.197998,328.651794 
	C325.290405,327.920776 319.281311,327.789459 312.953613,327.029327 
	C311.555359,326.707031 310.587036,326.330414 309.265808,325.800049 
	C306.034119,322.943787 302.124146,321.073517 301.785614,316.194916 
z"/>
<path fill="#007287" opacity="1.000000" stroke="none" 
	d="
M224.896179,310.344604 
	C240.454651,305.106415 253.655914,296.600433 264.899811,285.358185 
	C273.952515,276.306824 281.558746,266.017670 286.221680,253.857956 
	C286.812805,252.316498 287.695892,250.886993 288.711975,249.185486 
	C293.643616,247.378860 297.757416,248.913696 301.927307,251.590897 
	C299.940063,259.889099 295.429565,266.605011 291.112488,273.430481 
	C289.902557,275.343384 287.985382,276.902802 287.797119,280.030792 
	C287.248810,281.050018 286.743408,281.409668 286.069153,282.070251 
	C283.126251,286.850586 278.081726,289.545593 275.940582,294.970825 
	C275.301270,296.701782 274.355560,297.736359 272.755676,298.629669 
	C269.570282,299.379547 267.547913,301.066193 266.038940,303.926788 
	C265.629059,304.616211 265.338867,304.966003 264.717285,305.458740 
	C263.484344,306.139435 262.349396,306.240417 261.321564,307.233124 
	C260.986176,307.614349 260.849396,307.761505 260.493408,308.108856 
	C259.962189,308.531006 259.639343,308.735870 259.072388,309.059998 
	C258.690063,309.290100 258.539612,309.381561 258.172211,309.614685 
	C257.679657,309.954651 257.412994,310.164368 256.979980,310.566650 
	C256.684601,310.866119 256.564911,310.984833 256.247742,311.261902 
	C255.763794,311.598511 255.473206,311.769806 254.966278,312.074158 
	C254.616272,312.315430 254.478470,312.416626 254.137115,312.678497 
	C253.795380,312.946289 253.657227,313.053436 253.291290,313.314819 
	C252.890640,313.558167 252.717758,313.647339 252.264679,313.854919 
	C251.610947,314.123688 251.242508,314.285614 250.630035,314.615540 
	C250.224625,314.881683 250.068817,314.992462 249.690338,315.275696 
	C249.323135,315.565216 249.178635,315.682190 248.815399,315.971558 
	C248.443817,316.250305 248.290985,316.356628 247.895905,316.602539 
	C247.320923,316.916290 246.987000,317.088226 246.399063,317.399841 
	C245.973770,317.638550 245.801346,317.735352 245.372040,317.988953 
	C244.349548,318.586426 243.916336,319.338898 243.132660,320.263855 
	C228.466599,327.008240 213.818451,331.428711 197.612503,328.391083 
	C175.612839,324.267456 161.829330,304.877808 165.298676,282.649048 
	C166.965698,271.968140 171.368973,262.706512 178.103790,253.946594 
	C178.493896,253.407944 178.658218,253.198959 179.086746,252.692871 
	C179.539276,252.210403 179.727570,252.025040 180.218018,251.584290 
	C181.153824,250.856674 181.843979,250.486801 182.942932,250.072403 
	C186.033066,249.496307 188.690536,248.478317 191.883240,249.085083 
	C192.682556,249.395966 193.061172,249.686371 193.468155,250.408524 
	C193.576767,250.964859 193.575928,251.191208 193.477005,251.735901 
	C193.057983,252.607361 192.631958,253.089096 192.162720,253.907349 
	C191.927902,254.357346 191.833755,254.537048 191.581635,254.977127 
	C191.299469,255.398132 191.175262,255.558792 190.841125,255.943207 
	C190.480240,256.307800 190.329269,256.448608 189.947357,256.798523 
	C189.078140,257.582947 188.505722,258.219421 187.748550,259.159790 
	C181.277786,267.201996 176.686356,275.748993 174.894165,285.689117 
	C172.454666,299.219330 179.194412,310.399902 192.540176,313.892914 
	C203.538681,316.771545 214.284058,315.337585 224.896179,310.344604 
z"/>
<path fill="#FCFCFD" opacity="1.000000" stroke="none" 
	d="
M253.642303,164.736816 
	C265.021393,147.183762 279.135376,146.995392 290.751434,163.946838 
	C297.375549,173.613525 299.550568,184.513992 299.790527,195.990173 
	C299.865906,199.594070 297.420410,198.047150 296.036835,197.783600 
	C287.365082,196.131683 278.635864,195.206543 269.809387,195.162827 
	C262.308472,195.125671 254.873428,195.868393 247.580673,197.556564 
	C244.707275,198.221695 243.671066,197.996201 244.128784,194.713455 
	C245.582520,184.287231 247.815414,174.139496 253.642303,164.736816 
z"/>
<path fill="#01DAAB" opacity="1.000000" stroke="none" 
	d="
M272.207855,298.135132 
	C273.303925,297.354858 274.052246,296.682007 274.914185,295.782440 
	C277.357208,290.177582 282.721344,287.250671 285.911194,282.138184 
	C286.622101,281.431946 287.086151,280.953918 287.808228,280.267456 
	C288.057037,280.049805 288.046539,280.114227 288.068573,280.137634 
	C290.635254,278.834106 291.311127,275.873047 293.655151,273.936462 
	C295.147614,274.807007 294.977173,276.165649 294.554535,277.429535 
	C293.452484,280.725037 292.169769,283.930420 292.571289,287.562866 
	C292.714081,288.854858 291.875214,290.325714 290.681824,290.904785 
	C286.434082,292.965973 284.859955,297.110138 282.661835,300.763580 
	C279.225830,306.474487 275.219421,311.747101 270.535675,316.959106 
	C270.186584,317.432068 270.042786,317.617249 269.658783,318.056671 
	C268.904846,318.776733 268.359528,319.206604 267.604370,319.926453 
	C265.498291,321.657990 263.427155,322.805511 261.023163,324.119995 
	C248.265732,330.043610 235.529953,335.065918 221.856720,336.596558 
	C202.056061,338.813110 183.679550,334.693390 168.324249,321.380432 
	C159.944504,314.115265 155.576416,304.506348 155.577637,292.784912 
	C155.661301,289.878967 155.637177,287.377747 155.616028,284.448608 
	C155.565796,280.797363 155.803665,277.626007 157.584900,274.338654 
	C158.484894,271.880371 159.124603,269.773743 159.951767,267.353210 
	C163.902390,261.498505 168.032608,256.344269 174.354507,253.485046 
	C176.011505,252.735641 177.614838,251.729477 179.824310,252.789825 
	C174.717590,260.839325 169.541672,268.677551 167.380005,278.155487 
	C162.175735,300.973846 172.684082,320.164307 194.546661,326.180176 
	C204.456421,328.907013 214.413834,328.891754 224.703735,325.654785 
	C230.755417,323.751099 236.488266,321.003418 242.810669,319.091125 
	C243.779007,318.153870 244.710907,317.820679 245.816345,317.195740 
	C246.061157,317.033600 246.005096,317.002808 246.003845,317.034790 
	C246.416611,316.582214 247.026596,316.533356 247.822617,316.191162 
	C248.065811,316.024902 248.001343,316.008728 248.005310,316.041718 
	C248.209091,315.809418 248.431732,315.564911 248.866913,315.181061 
	C249.056686,315.020966 249.000122,315.002258 249.007477,315.031128 
	C249.998154,314.114502 251.398605,314.050476 252.790939,313.216675 
	C253.060089,313.032837 253.001221,313.006378 253.008453,313.037842 
	C253.212921,312.805756 253.433273,312.563202 253.864777,312.183044 
	C254.052841,312.024384 254.000870,311.999481 254.004303,312.028076 
	C254.422989,311.577454 255.032288,311.533447 255.823166,311.188354 
	C256.064667,311.021637 255.998886,311.014709 256.011475,311.045288 
	C256.508759,310.474701 257.079620,309.956055 257.839233,309.220154 
	C258.057800,309.031464 258.004944,309.000427 258.007812,309.030914 
	C258.420349,308.579956 259.024475,308.533417 259.813751,308.197845 
	C260.054382,308.032867 259.996399,308.008209 260.012787,308.035126 
	C261.059692,306.791168 262.338654,305.857300 264.178772,305.135071 
	C264.704315,305.064087 264.863098,304.999542 265.003235,304.700195 
	C266.785614,301.898773 268.932495,299.648834 272.207855,298.135132 
z"/>
<path fill="#FCFCFD" opacity="1.000000" stroke="none" 
	d="
M237.636444,298.964172 
	C237.552383,300.584381 238.421555,302.048645 236.149460,303.036469 
	C224.623474,308.047546 212.948486,312.089600 200.079880,310.039276 
	C188.180252,308.143311 182.683716,300.766174 184.667267,288.919189 
	C187.330536,273.012573 197.017456,262.156799 210.344833,254.008072 
	C212.594238,252.632721 212.695541,254.117798 213.146133,255.654373 
	C217.894562,271.847229 227.096146,285.618286 237.171875,299.091675 
	C237.498596,299.095795 237.742126,298.808197 237.636444,298.964172 
z"/>
<path fill="#FCFCFD" opacity="1.000000" stroke="none" 
	d="
M358.132294,285.460541 
	C359.379059,297.639160 354.631775,303.735992 341.827515,305.699493 
	C328.953491,307.673706 316.345673,305.927063 304.070984,301.549225 
	C301.317413,300.567169 301.217285,299.689667 303.064941,297.529877 
	C314.061005,284.676208 322.730408,270.402252 328.738983,254.558167 
	C329.347778,252.952850 329.557190,251.131973 331.991486,252.847321 
	C343.727081,261.117126 354.211761,270.373566 358.132294,285.460541 
z"/>
<path fill="#E12155" opacity="1.000000" stroke="none" 
	d="
M311.970825,326.427612 
	C318.631531,326.435516 325.385071,326.162262 331.855438,327.386230 
	C353.299713,331.442780 380.767609,306.049500 374.218048,281.586975 
	C370.668121,268.328125 364.248657,257.106598 354.825470,247.350159 
	C352.454010,244.894836 349.141541,243.923615 346.392944,241.574432 
	C345.926697,241.104691 345.707855,240.743378 345.220032,240.177887 
	C345.006439,239.940750 345.007172,240.001419 345.033234,239.985901 
	C343.138275,238.884674 341.284607,237.692719 339.252869,236.185272 
	C339.030579,235.939545 338.993042,235.988235 339.021301,235.976318 
	C335.165009,233.891464 331.032654,232.274857 327.208374,229.400787 
	C315.856995,223.660217 304.000519,220.757507 291.393738,218.980591 
	C288.987030,217.603317 289.098511,216.284149 291.096649,215.192429 
	C292.714996,214.308212 294.604645,213.741043 296.374573,213.935379 
	C306.904114,215.091400 317.657074,213.565186 328.428528,216.611969 
	C329.088440,216.703033 329.346802,216.747208 329.975189,216.893982 
	C331.038910,217.232574 331.708191,217.532028 332.719330,217.898041 
	C334.295349,218.478592 335.466034,219.107574 336.882812,219.980194 
	C337.725586,220.516571 338.285278,220.881958 339.172668,221.381546 
	C339.675293,221.685791 339.874298,221.816818 340.363220,222.166229 
	C351.313660,230.142822 361.337555,238.577713 369.274872,249.240158 
	C380.171173,263.877472 384.972168,280.246490 383.172485,298.452606 
	C381.769958,312.641266 373.829620,322.627045 362.107819,330.499512 
	C361.579437,330.761169 361.366730,330.854706 360.838806,331.072205 
	C360.317810,331.273376 360.112061,331.350586 359.603516,331.539917 
	C358.713867,331.872681 358.121704,332.079926 357.278625,332.481506 
	C356.457550,332.896057 355.901184,333.155884 355.086578,333.599548 
	C354.245361,334.051758 353.660919,334.314728 352.763000,334.693298 
	C350.676971,335.249634 348.939514,335.795563 346.936066,336.693146 
	C345.843445,336.968353 345.091553,336.979156 343.947021,336.848206 
	C334.014709,336.313782 324.716919,334.836029 316.217224,330.096832 
	C314.633087,329.213562 312.842682,328.601501 311.970825,326.427612 
z"/>
<path fill="#7AD3F8" opacity="1.000000" stroke="none" 
	d="
M210.838577,184.360626 
	C210.864929,183.199982 210.961380,182.470428 211.151535,181.383972 
	C212.119537,179.695663 212.352997,178.185013 212.354645,176.333267 
	C215.253265,161.464874 220.766083,147.911621 231.021439,137.046860 
	C254.393204,112.286255 285.323730,107.536293 313.009094,135.603836 
	C319.837830,142.526855 325.067139,150.585541 329.116486,159.416916 
	C329.589142,160.447723 330.445679,161.401382 329.701294,162.551941 
	C327.033661,158.824158 324.346100,155.068481 321.381531,151.128876 
	C317.941254,149.193527 316.377899,145.738419 313.181061,143.567047 
	C312.752106,143.269791 312.582062,143.152420 312.168579,142.852692 
	C311.770691,142.544357 311.616272,142.418381 311.012573,141.918152 
	C310.250183,141.315796 309.927948,141.101334 309.335022,140.760071 
	C308.900787,140.516144 308.728302,140.412430 308.302063,140.134979 
	C307.876099,139.841187 307.703918,139.721100 306.976257,139.250839 
	C306.221985,138.783127 306.023224,138.665604 305.520691,138.362885 
	C301.194092,135.512665 297.154236,132.929840 292.642822,131.073914 
	C273.202759,123.076599 256.877869,129.080078 242.170410,142.202972 
	C228.662109,154.255890 222.132416,170.058273 218.126083,187.252151 
	C216.739334,193.203659 216.924698,199.525543 213.580383,205.098877 
	C210.106369,201.237885 210.485245,196.668335 210.706665,192.239197 
	C210.830917,189.753830 211.032425,187.280930 210.838577,184.360626 
z"/>
<path fill="#FCFCFD" opacity="1.000000" stroke="none" 
	d="
M252.849457,247.040405 
	C249.435455,239.568466 249.430695,239.545853 257.338501,237.880661 
	C268.159027,235.602097 279.018005,235.131760 290.317200,237.073135 
	C285.302338,250.265030 280.385925,263.061279 271.238586,274.212860 
	C264.569550,265.473663 257.268005,257.488037 252.849457,247.040405 
z"/>
<path fill="#002D6F" opacity="1.000000" stroke="none" 
	d="
M224.798523,310.126862 
	C224.954681,311.441467 223.990921,312.091156 222.883316,312.526855 
	C210.234680,317.501923 197.591141,319.054932 185.125183,312.049622 
	C176.439224,307.168457 171.619095,297.507690 173.160019,287.701965 
	C174.923401,276.480743 179.567368,266.524963 187.519440,257.926208 
	C188.751907,257.755035 189.055206,256.955048 189.743622,256.167877 
	C189.926636,255.936584 189.935226,255.957336 189.943970,255.953354 
	C190.224152,255.783386 190.463226,255.579483 190.808350,255.145950 
	C190.946762,254.954269 190.963028,254.979553 190.948822,254.963303 
	C191.757599,254.284363 191.879913,253.175262 192.737579,252.177246 
	C192.926788,251.940369 192.978821,251.976715 192.956406,251.962341 
	C193.655426,251.355118 193.838699,250.491272 194.239990,249.360535 
	C194.534393,248.884033 194.675125,248.706787 195.068451,248.300446 
	C197.928116,246.197922 200.098801,243.867767 202.405701,241.214508 
	C202.716125,240.768341 202.837616,240.590118 203.151581,240.157318 
	C203.481796,239.743866 203.619568,239.585022 203.981659,239.209381 
	C204.368942,238.866501 204.531906,238.740402 204.962173,238.463287 
	C205.605392,238.152924 205.995544,238.045639 206.701691,238.001373 
	C211.722504,242.379883 211.381714,250.439484 206.377167,253.805359 
	C195.036453,261.432648 186.470718,271.195374 183.027023,284.757385 
	C178.298340,303.379944 188.231827,311.807312 204.876633,312.974823 
	C211.550888,313.442963 217.995865,311.841797 224.798523,310.126862 
z"/>
<path fill="#B61D58" opacity="1.000000" stroke="none" 
	d="
M331.082825,217.578979 
	C320.378510,215.944733 309.486420,216.459244 298.756866,215.131302 
	C295.292206,214.702484 291.322754,216.194763 290.831848,218.588593 
	C286.368286,218.516403 281.746826,218.135300 276.690704,217.722809 
	C268.990723,213.261353 262.953674,207.949554 262.789429,198.307983 
	C270.834137,197.776550 278.629272,197.720825 286.798462,199.145752 
	C301.851654,201.835373 315.682861,206.552399 328.342255,214.435471 
	C329.468262,215.136658 330.568420,215.897583 331.082825,217.578979 
z"/>
<path fill="#0194DE" opacity="1.000000" stroke="none" 
	d="
M228.330734,279.277649 
	C221.861740,271.466003 219.300888,261.954681 216.264877,252.716232 
	C214.887497,248.524933 212.815628,244.415680 212.929199,239.380295 
	C211.876022,229.770813 210.610336,220.586914 212.260788,210.941772 
	C216.251358,208.931000 215.980560,212.398529 216.546188,214.144653 
	C219.534286,223.369247 223.517853,232.109192 228.604385,240.355453 
	C229.737335,242.192215 230.744629,244.145325 233.286438,245.181458 
	C236.355652,249.486633 237.627838,254.096039 238.332153,259.306946 
	C237.740753,267.485748 235.216095,274.306702 228.330734,279.277649 
z"/>
<path fill="#01B29D" opacity="1.000000" stroke="none" 
	d="
M269.385437,318.294556 
	C269.687286,314.210938 273.265411,312.380066 275.275726,309.445374 
	C278.440643,304.825165 281.756073,300.326904 284.337738,295.338165 
	C284.717194,294.604889 284.943726,293.489960 285.543030,293.218536 
	C293.860565,289.451691 290.732361,280.575195 293.952637,274.159119 
	C294.161835,273.287262 294.384460,272.823883 294.810242,272.191101 
	C300.973633,266.382172 311.620056,264.660553 318.757904,268.611298 
	C314.190582,279.449707 307.967468,288.865509 299.339600,296.985809 
	C298.474457,297.463837 298.500366,298.074036 298.167114,298.813599 
	C298.010315,299.045532 297.994720,298.997009 298.020203,298.998230 
	C297.786438,299.202576 297.545288,299.425232 297.165283,299.857361 
	C297.008362,300.047272 296.999451,299.997223 297.023010,300.006775 
	C296.406128,300.448578 295.673920,300.779510 295.184448,301.801392 
	C295.022217,302.045563 295.000488,301.999451 295.021790,302.013580 
	C293.387085,302.815430 291.933594,303.877930 290.443909,305.475708 
	C285.111359,310.047882 279.382782,313.453705 273.859100,317.150146 
	C272.618652,317.980316 271.319214,318.774811 269.385437,318.294556 
z"/>
<path fill="#003488" opacity="1.000000" stroke="none" 
	d="
M244.500671,176.003143 
	C246.127350,160.797836 253.375046,149.298401 268.123474,143.500885 
	C276.949707,140.031357 285.116699,141.974548 292.315826,147.851868 
	C296.154785,150.985931 299.501556,154.655624 301.854980,159.508530 
	C302.378815,160.325714 302.466827,160.944351 302.837280,161.763092 
	C303.050201,161.986893 302.998657,161.997406 303.016541,161.978073 
	C303.411194,162.430420 303.470215,163.020264 303.839722,163.775009 
	C304.045441,163.978867 304.034058,163.937988 304.053680,163.925842 
	C305.582428,172.321075 309.300232,180.156006 310.424652,188.675507 
	C310.873871,192.079193 311.450226,195.522125 312.499481,198.776047 
	C313.740173,202.623672 311.156433,200.894211 309.392578,200.980377 
	C305.971100,196.799255 306.557220,191.557297 304.989105,186.917297 
	C303.196259,181.612396 301.127838,176.476868 298.283203,171.245117 
	C293.873779,153.265335 273.061829,144.034088 258.243561,153.674347 
	C254.919357,155.836975 252.346863,159.378448 250.801636,163.512894 
	C249.203522,167.788879 247.776123,172.244629 244.500671,176.003143 
z"/>
<path fill="#005D80" opacity="1.000000" stroke="none" 
	d="
M193.250320,250.150345 
	C189.812347,249.507156 186.868362,250.842575 183.376007,250.995285 
	C182.772583,250.538239 182.527664,250.007462 182.744156,249.579880 
	C186.534348,242.093735 185.538651,234.371841 183.922836,226.222565 
	C189.186096,219.680374 196.189423,215.924210 203.066757,212.007492 
	C204.160233,211.384720 206.023041,210.497650 205.850388,212.832626 
	C205.265625,220.741623 208.009277,228.406052 207.164673,236.639099 
	C206.512955,237.568939 206.176193,238.286301 205.205078,238.789719 
	C204.965530,238.946747 205.000229,238.972046 204.980453,238.969299 
	C204.767883,239.213837 204.556152,239.443680 204.146454,239.807648 
	C203.967392,239.959167 203.953659,239.978271 203.948730,239.965240 
	C201.178284,242.866196 198.281189,245.649506 195.202454,248.723282 
	C194.951935,248.945374 194.999298,248.974014 194.973175,248.969345 
	C194.594070,249.529831 194.219345,250.072189 193.250320,250.150345 
z"/>
<path fill="#004FA0" opacity="1.000000" stroke="none" 
	d="
M227.929321,279.748840 
	C232.745377,273.995605 236.524445,268.097198 237.247375,260.242950 
	C239.306107,259.030029 240.224213,260.754974 241.779724,261.764832 
	C242.032608,261.995880 241.997864,262.001984 242.006577,261.986694 
	C242.803528,262.411072 241.009796,263.822845 242.877182,264.189148 
	C243.010529,264.471802 243.028763,264.487122 243.038589,264.490601 
	C242.549118,269.418579 246.567963,272.170898 248.632111,275.828827 
	C250.418991,278.995422 252.667877,281.935516 254.967575,284.768707 
	C257.177673,287.491486 257.358887,289.478241 254.075592,291.501587 
	C250.406967,293.762390 246.977097,296.407806 243.402771,298.825928 
	C241.819366,299.897156 240.110550,300.475861 237.917969,299.170319 
	C237.530777,299.120178 237.567169,299.035645 237.532883,299.065735 
	C236.587280,293.714691 232.119141,290.299469 229.993225,285.568787 
	C229.186203,283.772949 227.921677,282.193604 227.929321,279.748840 
z"/>
<path fill="#361060" opacity="1.000000" stroke="none" 
	d="
M349.010437,262.384155 
	C359.379456,268.313507 365.029266,277.840363 365.856598,289.645538 
	C366.978394,305.653046 360.162140,314.243683 344.472809,318.333282 
	C341.922729,318.997986 339.313202,319.434784 336.308838,319.945557 
	C328.428101,317.805817 320.544952,318.251099 313.085022,316.075348 
	C309.601349,315.059326 306.015747,314.392914 302.215973,313.296387 
	C302.437134,309.001953 305.456848,309.792114 307.927032,310.085663 
	C316.397095,311.092285 324.849091,312.154022 333.715698,310.309509 
	C343.766876,309.660858 353.282898,308.056061 358.494995,298.831024 
	C361.901398,292.801849 363.044922,286.528687 359.352783,278.981079 
	C356.440094,273.026825 351.546112,268.697784 349.010437,262.384155 
z"/>
<path fill="#ACEFE2" opacity="1.000000" stroke="none" 
	d="
M251.887527,333.453430 
	C229.909210,344.705017 207.200836,349.810577 183.324219,340.868713 
	C168.812119,335.433929 157.516708,326.121277 151.944504,310.979675 
	C150.726929,307.671082 150.361191,304.290009 149.948181,300.443787 
	C150.095718,298.725037 149.994492,297.284760 152.009277,296.955017 
	C153.070724,297.875092 153.469131,298.789948 153.733337,299.754333 
	C159.994781,322.607605 176.548798,333.602203 198.493591,337.598114 
	C215.659058,340.723785 232.553925,338.589935 249.269165,332.229004 
	C250.516769,332.181122 251.277573,332.400757 251.887527,333.453430 
z"/>
<path fill="#F1B6C8" opacity="1.000000" stroke="none" 
	d="
M378.238586,325.721985 
	C377.238953,326.608124 376.501556,327.263000 375.487579,328.033203 
	C374.479095,328.470917 373.726440,328.693634 372.551758,328.477722 
	C371.036133,326.334991 372.691803,325.229706 373.679321,324.048920 
	C389.251190,305.429199 388.610291,285.047333 380.025208,263.956451 
	C374.844757,251.229675 366.407135,240.759781 356.271484,231.595459 
	C355.043427,230.485062 353.690399,229.474915 352.691437,227.650543 
	C352.581757,226.722610 352.800446,226.273453 353.625519,225.953430 
	C371.998810,238.496506 386.294739,253.941467 391.293671,275.953278 
	C395.370728,293.905914 392.917175,310.693542 379.282043,324.823181 
	C378.830170,325.160797 378.665497,325.325775 378.238586,325.721985 
z"/>
<path fill="#004FA0" opacity="1.000000" stroke="none" 
	d="
M313.057983,190.380768 
	C317.265656,187.764725 317.207916,183.520844 318.021027,179.284180 
	C318.718323,178.715210 319.510559,178.762939 319.854370,179.327225 
	C323.746948,185.716370 330.232971,188.268509 336.897552,191.161407 
	C338.649689,198.270599 339.140259,205.144699 338.919952,212.875717 
	C331.560455,208.384613 324.074951,205.413116 316.412048,202.828751 
	C314.133636,202.060318 314.765106,199.410126 314.199097,197.628281 
	C313.506226,195.447144 313.399658,193.079742 313.057983,190.380768 
z"/>
<path fill="#0194DE" opacity="1.000000" stroke="none" 
	d="
M337.181641,191.011566 
	C329.180450,190.029617 322.588226,186.605804 318.322357,179.055359 
	C318.025757,178.450027 318.022369,178.023056 318.028015,177.274902 
	C317.626923,168.075500 316.942566,159.246124 313.528503,150.885284 
	C313.088745,149.808472 312.908234,148.670746 313.179321,147.110962 
	C314.600372,144.797760 315.750458,146.068619 316.787720,146.985611 
	C318.119080,148.162659 318.969696,149.711105 319.802979,151.708435 
	C325.856934,160.520142 331.326904,169.210556 335.040253,178.891373 
	C336.479218,182.642715 337.288025,186.511642 337.181641,191.011566 
z"/>
<path fill="#01B29D" opacity="1.000000" stroke="none" 
	d="
M183.616760,225.987335 
	C188.060257,234.119507 188.096268,242.292923 183.092651,250.662292 
	C182.520874,251.264786 182.085526,251.533401 181.412323,251.902069 
	C180.881989,252.195572 180.602661,252.406525 180.174408,252.840866 
	C180.014053,253.049011 180.053345,253.009216 180.074188,253.029114 
	C172.402237,253.900803 167.785706,259.264709 163.224777,264.650635 
	C162.485458,265.523682 162.059036,266.641113 160.473755,266.994019 
	C163.968216,251.199371 171.307861,237.348999 183.616760,225.987335 
z"/>
<path fill="#B21C58" opacity="1.000000" stroke="none" 
	d="
M311.807800,325.770660 
	C320.328064,331.675110 329.475311,334.782532 339.566925,335.034363 
	C340.859619,335.066620 342.147034,335.310272 343.719238,335.755554 
	C340.345520,340.402435 335.470947,340.060944 330.179810,339.734436 
	C328.462738,339.961823 327.118195,340.004944 325.377960,340.128876 
	C324.982269,340.209717 324.531158,340.368622 324.292877,340.348511 
	C323.555084,340.303986 323.055542,340.279633 322.198395,340.374268 
	C321.290314,340.447174 320.750122,340.479950 319.974365,340.786926 
	C310.294556,340.691254 300.862701,340.597900 291.539062,336.970093 
	C290.715179,336.577820 290.490753,336.150330 290.599792,335.229462 
	C293.535583,332.154572 296.248108,329.316803 299.558716,327.142029 
	C302.260559,325.367157 305.088715,324.323669 308.734253,325.063293 
	C309.940216,325.250671 310.774048,325.384521 311.807800,325.770660 
z"/>
<path fill="#3F105F" opacity="1.000000" stroke="none" 
	d="
M291.361877,334.919617 
	C291.147339,335.615845 291.125122,335.978943 291.138794,336.611969 
	C285.239624,334.793549 279.286774,332.753967 273.378204,330.593323 
	C270.949951,329.705322 270.542725,328.500549 273.053802,326.940094 
	C278.298981,323.680634 283.067963,319.818878 287.289642,315.289551 
	C290.777954,311.547028 294.602966,313.606110 298.702454,314.908691 
	C299.887238,316.072113 300.003937,317.255829 299.377747,318.280975 
	C296.216827,323.455780 294.558197,329.343292 291.361877,334.919617 
z"/>
<path fill="#59135D" opacity="1.000000" stroke="none" 
	d="
M262.621460,197.999023 
	C264.005341,205.204819 268.097961,210.431229 273.613403,214.723724 
	C274.522369,215.431137 275.641998,215.862350 276.162323,217.374954 
	C268.797028,218.501953 261.337982,219.312469 253.435944,220.144348 
	C250.051193,212.885239 251.515976,206.110687 255.659317,199.276901 
	C257.906799,197.712997 260.093506,198.065048 262.621460,197.999023 
z"/>
<path fill="#002D6F" opacity="1.000000" stroke="none" 
	d="
M306.080780,254.103943 
	C305.989349,252.604980 305.879395,251.404541 306.130676,250.285233 
	C307.855927,242.601044 310.418518,241.516907 317.186432,245.521713 
	C327.921722,251.874146 327.922577,251.874619 322.037445,262.842468 
	C321.881927,263.132294 321.658844,263.385864 321.170929,263.844910 
	C319.669434,264.983093 318.644318,264.344513 317.842102,263.503632 
	C314.411926,259.908020 310.312164,257.188751 306.080780,254.103943 
z"/>
<path fill="#005D80" opacity="1.000000" stroke="none" 
	d="
M305.591675,253.871246 
	C311.930359,255.419403 315.719025,260.172363 320.542297,263.986511 
	C321.149689,265.776886 320.450043,267.228210 319.222504,268.808411 
	C310.780640,266.599030 303.061157,267.685883 295.376526,271.977295 
	C298.495392,266.045349 301.128357,259.587402 305.591675,253.871246 
z"/>
<path fill="#3F105F" opacity="1.000000" stroke="none" 
	d="
M255.528534,198.954376 
	C253.799713,205.526566 252.350327,212.212723 252.995758,219.685883 
	C251.802338,220.695648 250.617111,221.238052 249.420135,221.753174 
	C245.910385,223.263657 243.993683,222.935501 243.876358,218.285004 
	C243.773315,214.200394 243.060104,210.118408 242.908722,205.983063 
	C242.759918,201.917603 243.805954,199.930984 248.235474,199.623596 
	C250.485092,199.467499 252.792511,199.092194 255.528534,198.954376 
z"/>
<path fill="#BC729A" opacity="1.000000" stroke="none" 
	d="
M353.887695,225.664459 
	C353.788971,226.223526 353.560944,226.468887 353.264771,226.958252 
	C347.833710,227.991348 344.190369,223.890350 339.282898,222.231262 
	C338.946594,222.034637 338.993744,221.998856 338.993591,222.028442 
	C338.587189,221.546219 337.974823,221.492752 337.167053,221.162811 
	C335.806549,220.388504 334.684326,219.795197 333.263000,219.093414 
	C332.565552,218.509445 331.964142,218.498352 331.220886,218.131241 
	C331.004761,217.945114 331.009521,217.986954 331.029114,217.974792 
	C318.012695,208.575836 303.233246,203.314270 287.500732,199.464813 
	C300.414398,200.523865 312.818207,204.681213 324.963257,209.654297 
	C335.125488,213.815475 344.814972,218.917374 353.887695,225.664459 
z"/>
<path fill="#1A0D62" opacity="1.000000" stroke="none" 
	d="
M333.600403,310.044495 
	C328.960571,313.624207 323.123657,313.341888 317.496490,312.528290 
	C313.619385,311.967712 309.618164,312.468628 305.825073,311.080414 
	C304.586456,310.627106 303.210419,311.133759 302.145203,312.689850 
	C298.647461,312.951874 295.517609,312.260437 292.687347,310.675751 
	C292.758392,310.205414 292.725861,309.995911 292.815552,309.887787 
	C299.172791,302.222412 299.170380,302.231659 308.798676,305.823395 
	C316.643311,308.749756 324.636444,310.842010 333.600403,310.044495 
z"/>
<path fill="#7AD4CB" opacity="1.000000" stroke="none" 
	d="
M252.258224,333.836945 
	C251.458908,333.576324 251.014084,333.289917 250.287628,332.988220 
	C250.002258,329.387573 253.567444,329.146210 255.390274,327.277222 
	C256.880920,325.748871 258.799103,324.726624 260.780853,323.236694 
	C262.893707,321.908936 264.752960,320.823853 266.829468,319.502747 
	C267.360199,318.642639 267.972473,318.534119 268.814758,318.213165 
	C269.066437,318.038208 269.034912,318.076141 269.054382,318.093689 
	C276.613617,315.035553 282.712250,309.692230 289.676544,305.081848 
	C290.533203,304.783844 290.959808,304.939728 291.176025,305.778931 
	C279.800262,317.509247 266.744415,326.408142 252.258224,333.836945 
z"/>
<path fill="#73BAC0" opacity="1.000000" stroke="none" 
	d="
M152.262192,296.626831 
	C151.482529,297.824066 150.980942,298.752502 150.201263,299.850098 
	C147.559601,287.933411 150.447708,276.499603 154.479584,265.282410 
	C156.131012,260.687866 158.078873,256.133667 161.680984,252.442139 
	C160.585068,259.481903 157.220139,265.960297 156.674728,273.520325 
	C157.501617,276.264252 156.223495,278.530670 156.458023,281.220642 
	C156.341263,281.844421 156.245804,282.082947 155.959412,282.655243 
	C153.671646,287.198883 154.028854,292.001312 152.262192,296.626831 
z"/>
<path fill="#002D6F" opacity="1.000000" stroke="none" 
	d="
M302.377319,251.755600 
	C298.008270,250.989517 293.898712,250.008957 289.384674,248.996872 
	C288.984314,245.846436 290.891083,243.357361 291.802002,240.537231 
	C292.549835,238.221985 294.311890,237.601135 296.581390,238.332565 
	C307.751770,241.932709 309.050079,237.946060 302.377319,251.755600 
z"/>
<path fill="#73BFE9" opacity="1.000000" stroke="none" 
	d="
M214.136215,209.336990 
	C212.097137,216.587082 213.157990,223.642700 212.967987,230.647552 
	C212.901260,233.107941 212.961563,235.571793 212.928619,238.498093 
	C208.536392,223.194717 208.139450,207.147232 209.529907,190.978912 
	C209.713776,188.840683 210.057251,186.716202 210.547638,184.257446 
	C212.328827,184.897995 211.977188,186.477249 211.971298,187.897202 
	C211.948380,193.422913 211.766937,198.956451 213.480286,204.677277 
	C215.275772,206.085861 215.111313,207.513382 214.136215,209.336990 
z"/>
<path fill="#59135D" opacity="1.000000" stroke="none" 
	d="
M291.489807,335.140411 
	C291.961456,328.037201 296.358887,322.274902 299.026184,315.444153 
	C299.889008,315.188385 300.733032,315.296143 301.790192,315.643677 
	C302.758148,319.939087 306.803558,321.405640 308.944153,324.807709 
	C301.744751,325.635040 296.966736,330.661926 291.489807,335.140411 
z"/>
<path fill="#011E74" opacity="1.000000" stroke="none" 
	d="
M298.055878,171.341461 
	C302.424744,173.734482 303.315796,178.656128 305.011322,182.944046 
	C307.180573,188.430084 308.313293,194.259995 309.025085,200.558441 
	C303.268311,200.657913 301.119141,197.737946 301.934357,191.970291 
	C302.939026,184.862457 300.343475,178.291260 298.055878,171.341461 
z"/>
<path fill="#B988AC" opacity="1.000000" stroke="none" 
	d="
M371.597778,327.903320 
	C372.732574,328.046112 373.560516,328.046356 374.799744,328.097565 
	C365.114746,336.946350 352.969208,340.878174 340.043610,342.953735 
	C334.109558,343.906647 328.129578,343.913574 321.695190,343.828064 
	C320.719086,343.603821 320.524506,343.193817 320.996521,342.440277 
	C323.811157,342.091583 326.291687,341.928772 329.184387,341.807251 
	C331.070862,341.535461 332.583801,341.348907 334.257996,340.396362 
	C334.855896,340.201202 335.099762,340.141510 335.712891,340.018982 
	C344.774170,339.627533 352.860107,337.059601 360.938477,333.150848 
	C361.455078,332.884003 361.660431,332.779877 362.169312,332.522614 
	C363.063385,332.059113 363.638855,331.724945 364.411041,331.084137 
	C366.790985,329.656036 368.723572,328.031250 371.597778,327.903320 
z"/>
<path fill="#59135D" opacity="1.000000" stroke="none" 
	d="
M253.654114,223.109039 
	C253.541122,227.167496 256.351166,230.351364 257.001831,234.487762 
	C249.285751,238.129471 247.914902,237.452011 246.195572,230.088058 
	C244.702240,223.692123 250.156479,224.665131 253.654114,223.109039 
z"/>
<path fill="#1A0D62" opacity="1.000000" stroke="none" 
	d="
M335.852661,340.751312 
	C335.463165,340.832886 335.263794,340.692932 335.161011,340.758301 
	C334.435883,341.709412 333.525818,341.433807 332.339264,341.142212 
	C331.476654,340.582794 330.953674,340.294250 330.118988,339.962219 
	C334.362854,338.803925 338.918427,337.689087 343.737793,336.314697 
	C344.743256,335.954224 345.484863,335.853333 346.595093,335.685974 
	C347.094940,335.853363 347.226166,336.087250 347.322144,336.722290 
	C344.270416,340.376953 340.021698,339.792786 335.852661,340.751312 
z"/>
<path fill="#0C277A" opacity="1.000000" stroke="none" 
	d="
M320.076935,151.832123 
	C318.163910,150.140533 316.382874,148.203171 314.288879,146.158005 
	C312.283508,145.502274 311.354797,144.430542 311.811188,142.246765 
	C316.067535,143.579575 318.140717,147.297913 320.996277,150.624390 
	C320.806061,151.158768 320.507507,151.372574 320.076935,151.832123 
z"/>
<path fill="#1A0D62" opacity="1.000000" stroke="none" 
	d="
M326.970154,229.421753 
	C331.213867,230.631134 335.050232,232.891144 338.922974,235.644104 
	C334.527985,235.625244 331.072754,232.861130 327.121552,230.533951 
	C326.945160,230.079086 326.955048,229.891373 326.970154,229.421753 
z"/>
<path fill="#0C277A" opacity="1.000000" stroke="none" 
	d="
M155.673401,282.209778 
	C155.962021,279.441742 156.095535,277.018799 156.440048,274.270325 
	C156.850098,273.951843 157.049149,273.958954 157.546692,273.976562 
	C157.540161,276.995941 157.235123,280.004852 156.888214,283.429138 
	C155.789139,284.047485 155.597855,283.358734 155.673401,282.209778 
z"/>
<path fill="#73BAC0" opacity="1.000000" stroke="none" 
	d="
M291.376587,306.008057 
	C290.877747,305.838715 290.673431,305.533722 290.229645,305.087494 
	C291.058075,303.362366 292.313995,302.040741 294.699646,301.921692 
	C293.919067,303.309296 292.795105,304.590881 291.376587,306.008057 
z"/>
<path fill="#3F105F" opacity="1.000000" stroke="none" 
	d="
M320.901001,342.173004 
	C321.261230,342.610352 321.191833,342.966278 321.184143,343.589203 
	C319.029816,344.431946 317.283630,342.753815 314.177490,342.944183 
	C316.892334,341.625122 318.710541,342.155060 320.901001,342.173004 
z"/>
<path fill="#73BFE9" opacity="1.000000" stroke="none" 
	d="
M212.114731,176.372406 
	C213.230164,177.711929 213.639236,179.358749 211.572632,180.941254 
	C211.494064,179.591568 211.742889,178.156036 212.114731,176.372406 
z"/>
<path fill="#BC729A" opacity="1.000000" stroke="none" 
	d="
M331.685455,340.961609 
	C332.762512,340.851440 333.525421,340.831573 334.673279,340.817688 
	C333.858185,342.567963 332.055939,341.826263 330.028442,341.892944 
	C330.188141,341.582947 330.779724,341.317413 331.685455,340.961609 
z"/>
<path fill="#73BAC0" opacity="1.000000" stroke="none" 
	d="
M295.315918,301.969604 
	C294.745605,300.897888 295.230896,300.221863 296.689880,299.972107 
	C296.567535,300.642090 296.088562,301.267853 295.315918,301.969604 
z"/>
<path fill="#011E74" opacity="1.000000" stroke="none" 
	d="
M205.267303,238.947281 
	C205.462234,238.369400 205.958939,237.792038 206.723969,237.100113 
	C206.994324,237.156448 206.996368,237.327362 207.000763,237.754791 
	C206.525116,238.323471 206.047104,238.635635 205.267303,238.947281 
z"/>
<path fill="#1A0D62" opacity="1.000000" stroke="none" 
	d="
M319.998444,340.912415 
	C320.243317,340.689850 320.772217,340.507263 321.570953,340.408997 
	C321.321350,340.646362 320.801910,340.799377 319.998444,340.912415 
z"/>
<path fill="#73BAC0" opacity="1.000000" stroke="none" 
	d="
M298.279053,298.922729 
	C298.161621,298.481201 298.312897,297.916870 298.755127,297.254456 
	C298.879974,297.704254 298.713898,298.252106 298.279053,298.922729 
z"/>
<path fill="#73BAC0" opacity="1.000000" stroke="none" 
	d="
M297.272339,299.982605 
	C297.159515,299.714325 297.310699,299.381378 297.753754,299.023956 
	C297.875885,299.305634 297.706116,299.611786 297.272339,299.982605 
z"/>
<path fill="#1A0D62" opacity="1.000000" stroke="none" 
	d="
M324.158630,340.441345 
	C324.054596,340.328369 324.507477,340.182678 324.744873,340.196198 
	C324.831268,340.553070 324.591400,340.667938 324.158630,340.441345 
z"/>
<path fill="#B988AC" opacity="1.000000" stroke="none" 
	d="
M378.234406,325.910156 
	C378.034485,325.601837 378.216339,325.334595 378.758362,325.073669 
	C378.827393,325.286194 378.659912,325.576630 378.234406,325.910156 
z"/>
<path fill="#02B7FC" opacity="1.000000" stroke="none" 
	d="
M312.016510,141.947571 
	C311.054779,143.800781 313.116852,144.255203 313.817963,145.733307 
	C314.691620,152.422653 317.989777,158.129044 318.497742,164.627686 
	C318.806458,168.577408 319.173676,172.451614 318.325500,176.666275 
	C316.002075,172.056610 313.866180,167.198624 311.949371,162.255661 
	C302.978790,139.122879 280.773895,131.440125 262.111786,136.083328 
	C250.233490,139.038712 242.824249,147.810791 236.969681,158.396759 
	C236.643967,159.299683 236.490891,159.907532 236.132690,160.746460 
	C235.915665,160.973633 235.994202,160.985489 235.965164,160.958405 
	C235.574707,161.413330 235.490707,162.000168 235.117676,162.763672 
	C234.912659,162.972092 234.991180,162.989883 234.963974,162.960205 
	C234.573563,163.413818 234.490936,164.003433 234.113464,164.768250 
	C233.907516,164.977112 233.983536,164.990067 233.962891,164.957504 
	C233.577148,165.410049 233.490784,166.001282 233.114014,166.771347 
	C232.908478,166.982483 232.982193,166.988953 232.965973,166.955688 
	C232.571106,167.412842 232.488907,168.011841 232.143005,168.811310 
	C231.945877,169.036148 231.853363,169.298218 231.883240,169.433929 
	C231.721558,170.205673 231.485672,170.829102 231.153351,171.740265 
	C230.938110,171.994247 230.999176,171.996719 230.985382,171.969452 
	C229.690384,176.883057 228.507141,181.844147 227.776703,187.325974 
	C227.031921,193.749283 226.878296,199.784912 226.996994,206.262161 
	C227.839035,217.817444 229.131592,228.861954 232.480408,239.573059 
	C233.054245,241.408432 234.214890,243.170624 233.371368,245.621918 
	C229.792572,246.501984 229.084335,243.658890 227.854630,241.664627 
	C221.827408,231.889862 217.143127,221.512115 213.975632,210.020767 
	C213.807861,208.352081 213.817764,207.061829 213.763153,205.382233 
	C216.569321,185.496033 220.276321,166.185867 232.993042,150.284164 
	C243.906723,136.637085 257.233246,126.129868 275.703491,126.209007 
	C286.910278,126.257011 297.406982,130.038910 306.406830,137.785065 
	C307.000641,138.160477 307.321411,138.368652 307.836517,138.803497 
	C308.059509,138.986008 307.999695,138.997955 308.006104,138.968140 
	C308.201691,139.211014 308.420471,139.457397 308.865540,139.827820 
	C309.062286,139.978119 309.000946,139.996017 309.003601,139.964188 
	C309.398254,140.432327 309.987854,140.507309 310.793152,140.804840 
	C311.039642,140.961243 311.000366,141.000046 311.012573,140.975372 
	C311.213898,141.214233 311.424255,141.459503 311.852051,141.829224 
	C312.048187,141.971939 311.995667,141.965576 312.016510,141.947571 
z"/>
<path fill="#011E74" opacity="1.000000" stroke="none" 
	d="
M233.390167,246.245300 
	C229.428329,233.545349 226.757965,220.913589 226.315186,207.476562 
	C226.653229,206.704056 227.016068,206.545456 227.690887,206.814850 
	C229.228424,225.987915 233.700211,244.117661 241.977234,261.637451 
	C240.028259,262.709778 239.218857,260.937317 237.670990,259.944855 
	C237.122711,255.113358 235.127182,250.878372 233.390167,246.245300 
z"/>
<path fill="#003488" opacity="1.000000" stroke="none" 
	d="
M227.945465,206.570831 
	C227.573654,207.044647 227.232010,207.046875 226.634140,207.056000 
	C225.275070,200.644501 226.631500,194.309158 227.101501,187.514679 
	C227.632690,186.892273 228.006119,187.004837 228.194977,187.694366 
	C228.044495,194.037781 228.010056,200.068527 227.945465,206.570831 
z"/>
<path fill="#004FA0" opacity="1.000000" stroke="none" 
	d="
M228.347839,187.727692 
	C227.969193,187.725922 227.799561,187.487411 227.374634,187.189819 
	C227.666260,182.082932 228.777298,177.218140 230.718323,172.212646 
	C231.145340,177.256485 229.015259,182.220917 228.347839,187.727692 
z"/>
<path fill="#011E74" opacity="1.000000" stroke="none" 
	d="
M243.028824,264.111267 
	C242.146881,264.089294 240.932571,263.937134 241.859161,262.226318 
	C242.359238,262.564514 242.703171,263.157623 243.028824,264.111267 
z"/>
<path fill="#004FA0" opacity="1.000000" stroke="none" 
	d="
M232.210938,168.866364 
	C232.105667,168.444000 232.265457,167.851837 232.687500,167.091064 
	C232.791824,167.513824 232.633896,168.105194 232.210938,168.866364 
z"/>
<path fill="#004FA0" opacity="1.000000" stroke="none" 
	d="
M233.180496,166.828827 
	C233.071594,166.395111 233.234741,165.807739 233.670074,165.072662 
	C233.779007,165.508347 233.615768,166.091751 233.180496,166.828827 
z"/>
<path fill="#004FA0" opacity="1.000000" stroke="none" 
	d="
M234.178345,164.823730 
	C234.060684,164.382538 234.213837,163.787964 234.651886,163.061966 
	C234.774231,163.510483 234.611694,164.090424 234.178345,164.823730 
z"/>
<path fill="#0D186C" opacity="1.000000" stroke="none" 
	d="
M304.065399,163.668121 
	C303.711945,163.509933 303.378448,163.041016 303.039673,162.265411 
	C303.384705,162.424957 303.735046,162.891159 304.065399,163.668121 
z"/>
<path fill="#004FA0" opacity="1.000000" stroke="none" 
	d="
M235.182617,162.819305 
	C235.062897,162.377945 235.213120,161.783783 235.649719,161.060471 
	C235.774933,161.509705 235.613739,162.088104 235.182617,162.819305 
z"/>
<path fill="#0D186C" opacity="1.000000" stroke="none" 
	d="
M303.048950,161.667206 
	C302.711487,161.476868 302.372772,160.966827 302.031952,160.126434 
	C302.369110,160.313217 302.708405,160.830368 303.048950,161.667206 
z"/>
<path fill="#004FA0" opacity="1.000000" stroke="none" 
	d="
M236.197723,160.800751 
	C236.088928,160.367615 236.262161,159.761581 236.685211,158.946335 
	C236.783249,159.367371 236.631516,159.997604 236.197723,160.800751 
z"/>
<path fill="#004FA0" opacity="1.000000" stroke="none" 
	d="
M231.227936,171.798874 
	C231.094574,171.343262 231.251007,170.692276 231.660294,169.805466 
	C231.781342,170.247589 231.649551,170.925552 231.227936,171.798874 
z"/>
<path fill="#1A0D62" opacity="1.000000" stroke="none" 
	d="
M339.027954,236.293335 
	C341.404297,236.313553 343.016693,237.973709 344.927582,239.661270 
	C342.329041,240.167999 340.591766,238.562637 339.027954,236.293335 
z"/>
<path fill="#1A0D62" opacity="1.000000" stroke="none" 
	d="
M345.099670,240.250549 
	C345.382660,240.213898 345.758850,240.487045 346.108032,241.132263 
	C345.784943,241.189697 345.488892,240.875031 345.099670,240.250549 
z"/>
<path fill="#011E74" opacity="1.000000" stroke="none" 
	d="
M286.951691,281.745605 
	C283.735504,286.826813 279.803253,291.086395 275.304077,295.323639 
	C274.633514,293.776001 275.319214,292.410858 276.516815,291.115997 
	C279.515289,287.874023 282.433319,284.557678 285.673126,281.099335 
	C286.332855,281.002960 286.633179,281.193176 286.951691,281.745605 
z"/>
<path fill="#011E74" opacity="1.000000" stroke="none" 
	d="
M272.148376,297.967529 
	C270.247284,300.078094 267.938995,302.128510 265.328278,304.373016 
	C265.668365,300.737915 268.087891,298.700592 272.148376,297.967529 
z"/>
<path fill="#011E74" opacity="1.000000" stroke="none" 
	d="
M264.098358,304.985657 
	C263.235352,306.005615 261.966492,306.984344 260.363403,308.012573 
	C260.083374,305.651703 261.660431,305.030762 264.098358,304.985657 
z"/>
<path fill="#002D6F" opacity="1.000000" stroke="none" 
	d="
M252.704559,313.003021 
	C252.303787,314.316711 251.049637,314.818268 249.357712,315.115356 
	C249.602646,313.527832 250.794403,312.960632 252.704559,313.003021 
z"/>
<path fill="#011E74" opacity="1.000000" stroke="none" 
	d="
M189.614151,255.958038 
	C189.828888,257.062561 189.999222,258.386200 188.025879,258.043579 
	C188.046021,256.984100 188.395950,256.261627 189.614151,255.958038 
z"/>
<path fill="#002D6F" opacity="1.000000" stroke="none" 
	d="
M245.721664,317.013428 
	C245.674698,318.209381 244.559784,318.352081 243.314301,318.760803 
	C243.263458,317.465179 244.084457,316.910187 245.721664,317.013428 
z"/>
<path fill="#011E74" opacity="1.000000" stroke="none" 
	d="
M192.582794,251.985474 
	C193.023239,253.140396 192.575668,254.068466 191.239716,254.826019 
	C190.814346,253.726715 190.904556,252.600494 192.582794,251.985474 
z"/>
<path fill="#011E74" opacity="1.000000" stroke="none" 
	d="
M192.942139,250.324448 
	C193.444458,249.723740 193.934052,249.447998 194.685333,249.068466 
	C195.027802,250.160370 194.571426,251.081635 193.238937,251.829514 
	C192.932465,251.515106 192.930939,251.082245 192.942139,250.324448 
z"/>
<path fill="#0D186C" opacity="1.000000" stroke="none" 
	d="
M287.283691,281.844238 
	C286.751953,281.805695 286.473907,281.602325 286.079254,281.163208 
	C286.456299,280.584320 286.949982,280.241180 287.750366,279.973938 
	C287.883820,280.593018 287.710632,281.136200 287.283691,281.844238 
z"/>
<path fill="#011E74" opacity="1.000000" stroke="none" 
	d="
M257.720398,309.049286 
	C258.277161,310.167358 257.347687,310.467163 256.344208,311.010986 
	C255.936249,310.040436 256.363739,309.353638 257.720398,309.049286 
z"/>
<path fill="#011E74" opacity="1.000000" stroke="none" 
	d="
M255.746002,311.017822 
	C255.586426,311.387726 255.108185,311.753815 254.318832,312.088318 
	C254.480942,311.709137 254.954147,311.361542 255.746002,311.017822 
z"/>
<path fill="#011E74" opacity="1.000000" stroke="none" 
	d="
M259.738037,308.000916 
	C259.584991,308.436310 259.115601,308.839783 258.328461,309.152313 
	C258.481018,308.697235 258.951324,308.333069 259.738037,308.000916 
z"/>
<path fill="#002D6F" opacity="1.000000" stroke="none" 
	d="
M247.747894,316.029938 
	C247.586853,316.377136 247.107895,316.729401 246.315796,317.074219 
	C246.478394,316.722839 246.954178,316.378906 247.747894,316.029938 
z"/>
<path fill="#011E74" opacity="1.000000" stroke="none" 
	d="
M190.695694,255.015656 
	C190.876373,255.295441 190.697861,255.564987 190.181976,255.856140 
	C190.116699,255.658600 190.280655,255.367828 190.695694,255.015656 
z"/>
<path fill="#01DAAB" opacity="1.000000" stroke="none" 
	d="
M180.272675,252.961487 
	C180.227219,252.762756 180.440369,252.476486 180.914001,252.096191 
	C180.960083,252.292740 180.745682,252.583344 180.272675,252.961487 
z"/>
<path fill="#002D6F" opacity="1.000000" stroke="none" 
	d="
M253.788239,312.091309 
	C253.895370,312.338837 253.737915,312.653290 253.298065,313.018494 
	C253.184998,312.765594 253.354324,312.461884 253.788239,312.091309 
z"/>
<path fill="#002D6F" opacity="1.000000" stroke="none" 
	d="
M248.796753,315.097107 
	C248.900757,315.337982 248.744827,315.655029 248.299088,316.023376 
	C248.185120,315.774231 248.360977,315.473724 248.796753,315.097107 
z"/>
<path fill="#7EEDD4" opacity="1.000000" stroke="none" 
	d="
M151.994080,297.303101 
	C151.767197,291.910034 152.708755,287.123291 154.768433,282.269714 
	C156.727142,285.341095 155.308716,289.053558 156.742432,292.742249 
	C156.945328,307.304626 163.705658,317.782227 175.371979,325.129639 
	C193.900574,336.798889 213.832504,338.520264 234.702408,332.722076 
	C243.535538,330.268036 251.941223,326.751404 260.668884,323.039001 
	C258.698120,327.534546 253.841507,329.196655 250.161041,332.675995 
	C229.200073,341.501312 207.899612,343.221436 186.560257,335.861603 
	C168.356110,329.583130 155.846634,317.377686 151.994080,297.303101 
z"/>
<path fill="#007287" opacity="1.000000" stroke="none" 
	d="
M156.963730,292.633911 
	C153.628021,290.186554 155.723618,286.330505 155.120148,282.501953 
	C155.077805,282.064026 155.457214,281.975830 155.642853,281.920227 
	C156.012329,282.412720 156.196136,282.960815 156.613159,283.676697 
	C156.892868,286.620605 156.939392,289.396698 156.963730,292.633911 
z"/>
<path fill="#01B29D" opacity="1.000000" stroke="none" 
	d="
M268.740295,318.047424 
	C268.593018,318.392273 268.119598,318.746338 267.346436,319.183594 
	C267.502533,318.863403 267.958344,318.460022 268.740295,318.047424 
z"/>
<path fill="#EF8DA8" opacity="1.000000" stroke="none" 
	d="
M372.062378,327.740295 
	C369.737854,329.195953 367.571136,330.346069 365.199585,331.763275 
	C364.548248,332.429443 363.960571,332.467804 363.203094,332.819275 
	C362.979401,332.994659 363.002380,333.003662 363.002563,332.991394 
	C361.743439,333.710632 360.457764,333.927216 358.886536,332.839111 
	C358.627808,332.226807 358.605286,331.952820 358.813293,331.337006 
	C359.043823,330.995148 358.989441,330.986511 358.986267,331.013855 
	C359.218445,330.791443 359.466187,330.554565 359.922546,330.164551 
	C373.017365,322.678040 380.881714,311.990173 382.081665,296.925812 
	C384.270386,269.448700 371.218048,249.172623 351.300568,232.215698 
	C347.389282,228.885803 343.234833,225.841553 339.069580,222.350098 
	C344.043365,222.061096 347.899048,225.456879 352.816254,227.102829 
	C370.897095,242.027756 383.660889,259.963776 386.766815,283.347107 
	C388.999603,300.156952 384.533661,315.202515 372.062378,327.740295 
z"/>
<path fill="#3F105F" opacity="1.000000" stroke="none" 
	d="
M347.288147,337.121002 
	C347.007111,336.655792 346.997284,336.449066 346.975586,335.930908 
	C348.620697,334.970978 350.277710,334.322510 352.276062,333.614685 
	C352.835907,333.673553 353.054413,333.791840 353.273651,334.284058 
	C351.909668,336.699768 350.057343,337.717590 347.288147,337.121002 
z"/>
<path fill="#3F105F" opacity="1.000000" stroke="none" 
	d="
M358.727661,330.915436 
	C359.043823,330.995148 358.969238,331.392395 358.891602,331.578979 
	C358.742493,332.193573 358.486572,332.449860 357.773987,332.548828 
	C357.293488,332.450439 357.113068,332.363617 356.848267,331.988525 
	C357.313110,331.412109 357.862274,331.123901 358.727661,330.915436 
z"/>
<path fill="#3F105F" opacity="1.000000" stroke="none" 
	d="
M355.151306,333.129028 
	C355.244476,332.404114 355.722015,332.112305 356.481750,331.760406 
	C356.763916,331.700287 356.875275,331.850281 356.934875,331.922180 
	C357.134644,332.146240 357.274780,332.298462 357.332886,332.751160 
	C357.088806,333.182648 356.926819,333.313629 356.462646,333.526764 
	C355.952240,333.593323 355.743988,333.577698 355.151306,333.129028 
z"/>
<path fill="#3F105F" opacity="1.000000" stroke="none" 
	d="
M352.739197,333.703430 
	C353.140106,333.301270 353.662811,333.047241 354.476196,332.744568 
	C354.766907,332.695923 354.875793,332.848480 354.935608,332.920654 
	C355.232971,333.995026 354.645813,334.318298 353.457581,334.290466 
	C353.107147,334.145691 352.860992,333.851562 352.739197,333.703430 
z"/>
<path fill="#B61D58" opacity="1.000000" stroke="none" 
	d="
M331.154602,218.203201 
	C331.550812,218.128616 332.096863,218.312119 332.803406,218.740295 
	C332.410736,218.810410 331.857605,218.635849 331.154602,218.203201 
z"/>
<path fill="#EF8DA8" opacity="1.000000" stroke="none" 
	d="
M337.113159,221.229156 
	C337.516144,221.158463 338.103577,221.335083 338.842224,221.784882 
	C338.428162,221.864182 337.862885,221.670334 337.113159,221.229156 
z"/>
<path fill="#3F105F" opacity="1.000000" stroke="none" 
	d="
M359.801331,330.007324 
	C359.933960,330.327087 359.747467,330.653931 359.272003,331.010986 
	C359.149445,330.698914 359.315796,330.356628 359.801331,330.007324 
z"/>
<path fill="#0C277A" opacity="1.000000" stroke="none" 
	d="
M310.963867,140.581406 
	C310.266174,141.800140 309.752747,141.047974 309.093231,140.294861 
	C309.790771,138.922989 310.295502,139.869415 310.963867,140.581406 
z"/>
<path fill="#0C277A" opacity="1.000000" stroke="none" 
	d="
M308.078888,138.612457 
	C307.678528,138.848923 307.297577,138.711823 306.783936,138.285553 
	C307.133575,138.077240 307.615936,138.158081 308.078888,138.612457 
z"/>
<path fill="#0C277A" opacity="1.000000" stroke="none" 
	d="
M309.211639,139.608627 
	C308.723724,139.829391 308.385162,139.680664 308.029572,139.235138 
	C308.552673,138.632217 309.001434,138.735687 309.211639,139.608627 
z"/>
<path fill="#0C277A" opacity="1.000000" stroke="none" 
	d="
M312.055725,141.667969 
	C311.526001,142.299088 311.100555,142.201355 310.898071,141.315948 
	C311.370972,141.088470 311.717133,141.226227 312.055725,141.667969 
z"/>
<path fill="#011E74" opacity="1.000000" stroke="none" 
	d="
M195.301544,248.934814 
	C196.603699,244.931137 199.884064,242.435730 203.603729,239.992554 
	C202.519821,244.181641 199.154327,246.616577 195.301544,248.934814 
z"/>
<path fill="#011E74" opacity="1.000000" stroke="none" 
	d="
M204.195984,239.865768 
	C204.038040,239.618637 204.216843,239.350143 204.732239,239.060120 
	C204.890091,239.307098 204.711395,239.575699 204.195984,239.865768 
z"/>
<path fill="#B61D58" opacity="1.000000" stroke="none" 
	d="
M325.614655,338.548340 
	C322.882751,338.995392 321.671356,337.949768 322.408142,335.574432 
	C322.859314,334.119843 324.423431,333.604034 325.715424,334.266998 
	C327.819763,335.346832 327.088959,336.917511 325.614655,338.548340 
z"/>
<path fill="#BC729A" opacity="1.000000" stroke="none" 
	d="
M352.879822,334.393494 
	C353.640198,333.932495 354.173279,333.719299 354.850861,333.249481 
	C355.177032,333.012238 355.358673,333.031616 355.811401,333.090851 
	C356.276367,333.180634 356.470276,333.230560 356.807678,333.016693 
	C356.951172,332.752899 356.949646,332.372192 356.972076,332.183136 
	C357.398621,331.946533 357.802734,331.898987 358.510437,331.808533 
	C359.573517,333.223999 360.949615,332.952423 362.611084,332.979218 
	C354.948822,338.311340 346.027405,340.743042 335.948212,340.879150 
	C339.083649,339.608002 342.704102,338.383118 346.670776,337.010376 
	C348.895477,336.122070 350.773956,335.381653 352.879822,334.393494 
z"/>
<path fill="#BC729A" opacity="1.000000" stroke="none" 
	d="
M363.276459,332.975189 
	C363.451630,332.679108 363.923859,332.363556 364.695435,332.039185 
	C364.521027,332.338806 364.047272,332.647247 363.276459,332.975189 
z"/>
<path fill="#EF8DA8" opacity="1.000000" stroke="none" 
	d="
M356.730347,332.838989 
	C356.737091,332.983551 356.523041,333.214233 356.195740,333.287842 
	C356.082489,333.130737 356.509552,332.925079 356.730347,332.838989 
z"/>
</svg>